<?xml version="1.0" encoding="utf-8" standalone="no"?>
<!DOCTYPE svg PUBLIC "-//W3C//DTD SVG 1.1//EN"
  "http://www.w3.org/Graphics/SVG/1.1/DTD/svg11.dtd">
<svg xmlns:xlink="http://www.w3.org/1999/xlink" width="178.042696pt" height="178.042696pt" viewBox="0 0 178.042696 178.042696" xmlns="http://www.w3.org/2000/svg" version="1.1">
 <metadata>
  <rdf:RDF xmlns:dc="http://purl.org/dc/elements/1.1/" xmlns:cc="http://creativecommons.org/ns#" xmlns:rdf="http://www.w3.org/1999/02/22-rdf-syntax-ns#">
   <cc:Work>
    <dc:type rdf:resource="http://purl.org/dc/dcmitype/StillImage"/>
    <dc:date>2023-09-04T17:58:16.973263</dc:date>
    <dc:format>image/svg+xml</dc:format>
    <dc:creator>
     <cc:Agent>
      <dc:title>Matplotlib v3.5.1, https://matplotlib.org/</dc:title>
     </cc:Agent>
    </dc:creator>
   </cc:Work>
  </rdf:RDF>
 </metadata>
 <defs>
  <style type="text/css">*{stroke-linejoin: round; stroke-linecap: butt}</style>
 </defs>
 <g id="figure_1">
  <g id="patch_1">
   <path d="M 0 178.042696 
L 178.042696 178.042696 
L 178.042696 0 
L 0 0 
L 0 178.042696 
z
" style="fill: none"/>
  </g>
  <g id="axes_1">
   <g id="patch_2">
    <path d="M 18.352696 159.69 
L 167.842696 159.69 
L 167.842696 10.2 
L 18.352696 10.2 
z
" style="fill: #ffffff"/>
   </g>
   <g id="PathCollection_1">
    <defs>
     <path id="me65c72d67c" d="M 0 3 
C 0.795609 3 1.55874 2.683901 2.12132 2.12132 
C 2.683901 1.55874 3 0.795609 3 0 
C 3 -0.795609 2.683901 -1.55874 2.12132 -2.12132 
C 1.55874 -2.683901 0.795609 -3 0 -3 
C -0.795609 -3 -1.55874 -2.683901 -2.12132 -2.12132 
C -2.683901 -1.55874 -3 -0.795609 -3 0 
C -3 0.795609 -2.683901 1.55874 -2.12132 2.12132 
C -1.55874 2.683901 -0.795609 3 0 3 
z
" style="stroke: #000000; stroke-width: 0.5"/>
    </defs>
    <g clip-path="url(#p90108181cc)">
     <use xlink:href="#me65c72d67c" x="34.854839" y="46.116429" style="fill: #e34a33; stroke: #000000; stroke-width: 0.5"/>
     <use xlink:href="#me65c72d67c" x="53.066621" y="75.835357" style="fill: #e34a33; stroke: #000000; stroke-width: 0.5"/>
     <use xlink:href="#me65c72d67c" x="75.703251" y="102.339445" style="fill: #e34a33; stroke: #000000; stroke-width: 0.5"/>
     <use xlink:href="#me65c72d67c" x="102.20734" y="124.976075" style="fill: #e34a33; stroke: #000000; stroke-width: 0.5"/>
     <use xlink:href="#me65c72d67c" x="131.926268" y="143.187857" style="fill: #e34a33; stroke: #000000; stroke-width: 0.5"/>
    </g>
   </g>
   <g id="patch_3">
    <path d="M 52.993889 100.78095 
C 58.090871 105.877931 64.136952 109.609667 69.800553 111.154286 
C 75.464155 112.698904 80.282869 111.930295 83.19543 109.017734 
C 86.107991 106.105173 86.8766 101.286459 85.331982 95.622857 
C 83.787363 89.959256 80.055627 83.913174 74.958646 78.816193 
C 69.861665 73.719212 63.815583 69.987476 58.151982 68.442857 
C 52.48838 66.898239 47.669666 67.666848 44.757105 70.579409 
C 41.844544 73.49197 41.075935 78.310684 42.620553 83.974286 
C 44.165172 89.637887 47.896908 95.683968 52.993889 100.78095 
L 52.993889 100.78095 
z
" clip-path="url(#p90108181cc)" style="fill: none; stroke: #47ff7e; stroke-width: 2; stroke-linejoin: miter"/>
   </g>
   <g id="PathCollection_2"/>
   <g id="matplotlib.axis_1">
    <g id="text_1">
     <!-- $f_1({\bf x })$ -->
     <g transform="translate(77.522421 167.355772)scale(0.14 -0.14)">
      <defs>
       <path id="CMMI12-66" d="M 2854 2566 
C 2982 2566 3034 2566 3034 2688 
C 3034 2752 2982 2752 2867 2752 
L 2349 2752 
C 2470 3429 2560 3897 2611 4107 
C 2650 4265 2784 4416 2950 4416 
C 3085 4416 3219 4358 3283 4298 
C 3034 4272 2957 4082 2957 3969 
C 2957 3837 3053 3759 3174 3759 
C 3302 3759 3494 3870 3494 4119 
C 3494 4393 3226 4544 2944 4544 
C 2669 4544 2400 4334 2272 4078 
C 2157 3848 2093 3611 1946 2752 
L 1517 2752 
C 1395 2752 1331 2752 1331 2637 
C 1331 2566 1370 2566 1498 2566 
L 1907 2566 
C 1792 1976 1530 542 1382 -137 
C 1274 -689 1178 -1152 858 -1152 
C 838 -1152 653 -1152 538 -1031 
C 864 -1005 864 -726 864 -720 
C 864 -593 768 -517 646 -517 
C 518 -517 326 -625 326 -867 
C 326 -1140 608 -1280 858 -1280 
C 1510 -1280 1779 -118 1850 199 
C 1965 688 2278 2376 2310 2566 
L 2854 2566 
z
" transform="scale(0.015625)"/>
       <path id="CMR17-31" d="M 1702 4058 
C 1702 4192 1696 4192 1606 4192 
C 1357 3916 979 3827 621 3827 
C 602 3827 570 3827 563 3808 
C 557 3795 557 3782 557 3648 
C 755 3648 1088 3686 1344 3839 
L 1344 461 
C 1344 236 1331 160 781 160 
L 589 160 
L 589 0 
C 896 0 1216 0 1523 0 
C 1830 0 2150 0 2458 0 
L 2458 160 
L 2266 160 
C 1715 160 1702 230 1702 458 
L 1702 4058 
z
" transform="scale(0.015625)"/>
       <path id="CMR17-28" d="M 1958 -1561 
C 1958 -1555 1958 -1542 1939 -1523 
C 1645 -1224 858 -407 858 1581 
C 858 3569 1632 4379 1946 4697 
C 1946 4704 1958 4717 1958 4736 
C 1958 4755 1939 4768 1914 4768 
C 1843 4768 1299 4296 986 3594 
C 666 2887 576 2199 576 1588 
C 576 1128 621 351 1005 -471 
C 1312 -1135 1837 -1600 1914 -1600 
C 1946 -1600 1958 -1587 1958 -1561 
z
" transform="scale(0.015625)"/>
       <path id="CMBX12-78" d="M 2157 1567 
L 2899 2415 
C 2970 2498 3027 2549 3558 2549 
L 3558 2816 
C 3200 2816 3187 2816 2970 2816 
C 2784 2816 2509 2816 2330 2822 
L 2330 2549 
C 2451 2549 2586 2517 2586 2472 
C 2586 2460 2554 2415 2541 2402 
L 1984 1778 
L 1350 2549 
L 1619 2549 
L 1619 2822 
C 1472 2816 1037 2816 864 2816 
C 672 2816 326 2816 147 2822 
L 147 2549 
L 602 2549 
L 1600 1338 
L 768 401 
C 691 312 646 267 115 267 
L 115 0 
C 499 0 512 0 710 0 
C 896 0 1165 0 1344 -6 
L 1344 267 
C 1222 267 1088 299 1088 344 
C 1088 350 1088 356 1133 407 
L 1773 1128 
L 2483 267 
L 2214 267 
L 2214 -6 
C 2368 0 2797 0 2976 0 
C 3168 0 3507 0 3686 -6 
L 3686 267 
L 3238 267 
L 2157 1567 
z
" transform="scale(0.015625)"/>
       <path id="CMR17-29" d="M 1683 1581 
C 1683 2040 1638 2817 1254 3639 
C 947 4303 422 4768 346 4768 
C 326 4768 301 4761 301 4729 
C 301 4717 307 4710 314 4697 
C 621 4378 1402 3568 1402 1584 
C 1402 -407 627 -1217 314 -1537 
C 307 -1549 301 -1556 301 -1568 
C 301 -1600 326 -1600 346 -1600 
C 416 -1600 960 -1128 1274 -426 
C 1594 281 1683 969 1683 1581 
z
" transform="scale(0.015625)"/>
      </defs>
      <use xlink:href="#CMMI12-66" transform="scale(0.996264)"/>
      <use xlink:href="#CMR17-31" transform="translate(48.083238 -14.943915)scale(0.697382)"/>
      <use xlink:href="#CMR17-28" transform="translate(80.564552 0)scale(0.996264)"/>
      <use xlink:href="#CMBX12-78" transform="translate(115.845319 0)scale(0.996264)"/>
      <use xlink:href="#CMR17-29" transform="translate(174.998495 0)scale(0.996264)"/>
     </g>
    </g>
   </g>
   <g id="matplotlib.axis_2">
    <g id="text_2">
     <!-- $f_2({\bf x })$ -->
     <g transform="translate(17.660772 100.520275)rotate(-90)scale(0.14 -0.14)">
      <defs>
       <path id="CMR17-32" d="M 2669 989 
L 2554 989 
C 2490 536 2438 459 2413 420 
C 2381 369 1920 369 1830 369 
L 602 369 
C 832 619 1280 1072 1824 1597 
C 2214 1967 2669 2402 2669 3035 
C 2669 3790 2067 4224 1395 4224 
C 691 4224 262 3604 262 3030 
C 262 2780 448 2748 525 2748 
C 589 2748 781 2787 781 3010 
C 781 3207 614 3264 525 3264 
C 486 3264 448 3258 422 3245 
C 544 3790 915 4058 1306 4058 
C 1862 4058 2227 3617 2227 3035 
C 2227 2479 1901 2000 1536 1584 
L 262 146 
L 262 0 
L 2515 0 
L 2669 989 
z
" transform="scale(0.015625)"/>
      </defs>
      <use xlink:href="#CMMI12-66" transform="scale(0.996264)"/>
      <use xlink:href="#CMR17-32" transform="translate(48.083238 -14.943915)scale(0.697382)"/>
      <use xlink:href="#CMR17-28" transform="translate(80.564552 0)scale(0.996264)"/>
      <use xlink:href="#CMBX12-78" transform="translate(115.845319 0)scale(0.996264)"/>
      <use xlink:href="#CMR17-29" transform="translate(174.998495 0)scale(0.996264)"/>
     </g>
    </g>
   </g>
   <g id="line2d_1">
    <defs>
     <path id="mff025ca21f" d="M 3 0 
L -3 -3 
L -3 3 
z
" style="stroke: #000000; stroke-linejoin: miter"/>
    </defs>
    <g>
     <use xlink:href="#mff025ca21f" x="167.842696" y="152.895" style="stroke: #000000; stroke-linejoin: miter"/>
    </g>
   </g>
   <g id="line2d_2">
    <defs>
     <path id="me35bcbf0fb" d="M 0 -3 
L -3 3 
L 3 3 
z
" style="stroke: #000000; stroke-linejoin: miter"/>
    </defs>
    <g>
     <use xlink:href="#me35bcbf0fb" x="25.147696" y="10.2" style="stroke: #000000; stroke-linejoin: miter"/>
    </g>
   </g>
   <g id="patch_4">
    <path d="M 25.147696 159.69 
L 25.147696 10.2 
" style="fill: none; stroke: #000000; stroke-width: 0.5; stroke-linejoin: miter; stroke-linecap: square"/>
   </g>
   <g id="patch_5">
    <path d="M 18.352696 152.895 
L 167.842696 152.895 
" style="fill: none; stroke: #000000; stroke-width: 0.5; stroke-linejoin: miter; stroke-linecap: square"/>
   </g>
   <g id="legend_1">
    <g id="PathCollection_3"/>
    <g id="text_3">
     <!-- 3. -->
     <g transform="translate(151.093952 26.2)scale(0.1 -0.1)">
      <defs>
       <path id="CMSS17-33" d="M 1005 2025 
L 1440 2025 
C 2042 2025 2214 1507 2214 1146 
C 2214 653 1933 267 1472 267 
C 1114 267 608 444 320 912 
C 275 691 275 678 250 526 
C 550 88 1037 -128 1485 -128 
C 2214 -128 2752 473 2752 1138 
C 2752 1638 2400 2057 1920 2215 
C 2304 2424 2586 2816 2586 3273 
C 2586 3805 2093 4229 1491 4229 
C 941 4229 512 3892 333 3530 
C 378 3468 493 3284 550 3189 
C 691 3562 1056 3840 1485 3840 
C 1843 3840 2080 3607 2080 3271 
C 2080 2923 1856 2543 1478 2455 
C 1453 2455 1056 2417 1005 2411 
L 1005 2025 
z
" transform="scale(0.015625)"/>
       <path id="CMSS17-2e" d="M 1088 510 
L 576 510 
L 576 0 
L 1088 0 
L 1088 510 
z
" transform="scale(0.015625)"/>
      </defs>
      <use xlink:href="#CMSS17-33" transform="scale(0.996264)"/>
      <use xlink:href="#CMSS17-2e" transform="translate(46.843624 0)scale(0.996264)"/>
     </g>
    </g>
   </g>
  </g>
 </g>
 <defs>
  <clipPath id="p90108181cc">
   <rect x="18.352696" y="10.2" width="149.49" height="149.49"/>
  </clipPath>
 </defs>
</svg>
