<?xml version="1.0" encoding="utf-8" standalone="no"?>
<!DOCTYPE svg PUBLIC "-//W3C//DTD SVG 1.1//EN"
  "http://www.w3.org/Graphics/SVG/1.1/DTD/svg11.dtd">
<svg xmlns:xlink="http://www.w3.org/1999/xlink" width="298.855789pt" height="296.786819pt" viewBox="0 0 298.855789 296.786819" xmlns="http://www.w3.org/2000/svg" version="1.1">
 <metadata>
  <rdf:RDF xmlns:dc="http://purl.org/dc/elements/1.1/" xmlns:cc="http://creativecommons.org/ns#" xmlns:rdf="http://www.w3.org/1999/02/22-rdf-syntax-ns#">
   <cc:Work>
    <dc:type rdf:resource="http://purl.org/dc/dcmitype/StillImage"/>
    <dc:date>2023-09-06T12:45:28.348705</dc:date>
    <dc:format>image/svg+xml</dc:format>
    <dc:creator>
     <cc:Agent>
      <dc:title>Matplotlib v3.5.1, https://matplotlib.org/</dc:title>
     </cc:Agent>
    </dc:creator>
   </cc:Work>
  </rdf:RDF>
 </metadata>
 <defs>
  <style type="text/css">*{stroke-linejoin: round; stroke-linecap: butt}</style>
 </defs>
 <g id="figure_1">
  <g id="patch_1">
   <path d="M 0 296.786819 
L 298.855789 296.786819 
L 298.855789 -0 
L 0 -0 
L 0 296.786819 
z
" style="fill: none"/>
  </g>
  <g id="axes_1">
   <g id="patch_2">
    <path d="M 16.855789 282 
L 288.655789 282 
L 288.655789 10.2 
L 16.855789 10.2 
z
" style="fill: #ffffff"/>
   </g>
   <g id="PathCollection_1">
    <defs>
     <path id="mcbfe7ebe28" d="M 0 3 
C 0.795609 3 1.55874 2.683901 2.12132 2.12132 
C 2.683901 1.55874 3 0.795609 3 0 
C 3 -0.795609 2.683901 -1.55874 2.12132 -2.12132 
C 1.55874 -2.683901 0.795609 -3 0 -3 
C -0.795609 -3 -1.55874 -2.683901 -2.12132 -2.12132 
C -2.683901 -1.55874 -3 -0.795609 -3 0 
C -3 0.795609 -2.683901 1.55874 -2.12132 2.12132 
C -1.55874 2.683901 -0.795609 3 0 3 
z
" style="stroke: #c0348b"/>
    </defs>
    <g clip-path="url(#pe0274c53be)">
     <use xlink:href="#mcbfe7ebe28" x="232.852876" y="22.554545" style="fill: #c0348b; stroke: #c0348b"/>
     <use xlink:href="#mcbfe7ebe28" x="221.869343" y="91.90184" style="fill: #c0348b; stroke: #c0348b"/>
     <use xlink:href="#mcbfe7ebe28" x="189.993891" y="154.460937" style="fill: #c0348b; stroke: #c0348b"/>
     <use xlink:href="#mcbfe7ebe28" x="140.34671" y="204.108118" style="fill: #c0348b; stroke: #c0348b"/>
     <use xlink:href="#mcbfe7ebe28" x="77.787612" y="235.983571" style="fill: #c0348b; stroke: #c0348b"/>
    </g>
   </g>
   <g id="PathCollection_2">
    <defs>
     <path id="C0_0_9b5f90e2bc" d="M 0 3 
C 0.795609 3 1.55874 2.683901 2.12132 2.12132 
C 2.683901 1.55874 3 0.795609 3 -0 
C 3 -0.795609 2.683901 -1.55874 2.12132 -2.12132 
C 1.55874 -2.683901 0.795609 -3 0 -3 
C -0.795609 -3 -1.55874 -2.683901 -2.12132 -2.12132 
C -2.683901 -1.55874 -3 -0.795609 -3 0 
C -3 0.795609 -2.683901 1.55874 -2.12132 2.12132 
C -1.55874 2.683901 -0.795609 3 0 3 
z
"/>
    </defs>
    <g clip-path="url(#pe0274c53be)">
     <use xlink:href="#C0_0_9b5f90e2bc" x="121.641415" y="80.167105" style="fill: none; stroke: #c0348b"/>
    </g>
    <g clip-path="url(#pe0274c53be)">
     <use xlink:href="#C0_0_9b5f90e2bc" x="100.399368" y="67.923303" style="fill: none; stroke: #c0348b"/>
    </g>
    <g clip-path="url(#pe0274c53be)">
     <use xlink:href="#C0_0_9b5f90e2bc" x="171.107995" y="60.759161" style="fill: none; stroke: #c0348b"/>
    </g>
    <g clip-path="url(#pe0274c53be)">
     <use xlink:href="#C0_0_9b5f90e2bc" x="184.821743" y="85.272642" style="fill: none; stroke: #c0348b"/>
    </g>
    <g clip-path="url(#pe0274c53be)">
     <use xlink:href="#C0_0_9b5f90e2bc" x="63.949053" y="152.429228" style="fill: none; stroke: #c0348b"/>
    </g>
    <g clip-path="url(#pe0274c53be)">
     <use xlink:href="#C0_0_9b5f90e2bc" x="138.17705" y="90.39571" style="fill: none; stroke: #c0348b"/>
    </g>
    <g clip-path="url(#pe0274c53be)">
     <use xlink:href="#C0_0_9b5f90e2bc" x="121.352052" y="133.523336" style="fill: none; stroke: #c0348b"/>
    </g>
    <g clip-path="url(#pe0274c53be)">
     <use xlink:href="#C0_0_9b5f90e2bc" x="158.706697" y="68.836316" style="fill: none; stroke: #c0348b"/>
    </g>
    <g clip-path="url(#pe0274c53be)">
     <use xlink:href="#C0_0_9b5f90e2bc" x="49.972138" y="118.973548" style="fill: none; stroke: #c0348b"/>
    </g>
    <g clip-path="url(#pe0274c53be)">
     <use xlink:href="#C0_0_9b5f90e2bc" x="125.070591" y="148.861914" style="fill: none; stroke: #c0348b"/>
    </g>
   </g>
   <g id="matplotlib.axis_1">
    <g id="text_1">
     <!-- Horsepower -->
     <g transform="translate(112.293706 286.098755)scale(0.18 -0.18)">
      <defs>
       <path id="CMSS17-48" d="M 3674 4416 
L 3136 4416 
L 3136 2501 
L 1101 2501 
L 1101 4416 
L 563 4416 
L 563 0 
L 1101 0 
L 1101 2112 
L 3136 2112 
L 3136 0 
L 3674 0 
L 3674 4416 
z
" transform="scale(0.015625)"/>
       <path id="CMSS17-6f" d="M 2829 1356 
C 2829 2176 2221 2816 1504 2816 
C 768 2816 173 2157 173 1356 
C 173 544 787 -64 1498 -64 
C 2227 -64 2829 563 2829 1356 
z
M 1504 337 
C 1050 337 659 709 659 1408 
C 659 2151 1114 2427 1498 2427 
C 1914 2427 2342 2126 2342 1408 
C 2342 683 1926 337 1504 337 
z
" transform="scale(0.015625)"/>
       <path id="CMSS17-72" d="M 954 1363 
C 954 1965 1395 2368 1958 2368 
L 1958 2789 
C 1549 2789 1165 2585 934 2253 
L 934 2758 
L 480 2758 
L 480 0 
L 954 0 
L 954 1363 
z
" transform="scale(0.015625)"/>
       <path id="CMSS17-73" d="M 2061 2627 
C 1683 2807 1389 2807 1197 2807 
C 742 2807 198 2648 198 2003 
C 198 1359 902 1218 1094 1179 
C 1389 1122 1715 1058 1715 740 
C 1715 337 1254 337 1171 337 
C 915 337 563 407 243 638 
L 166 210 
C 531 0 883 -64 1178 -64 
C 1965 -64 2163 416 2163 781 
C 2163 1094 1984 1305 1862 1401 
C 1651 1568 1574 1587 1050 1696 
C 960 1709 646 1779 646 2066 
C 646 2432 1050 2432 1139 2432 
C 1555 2432 1811 2303 1984 2208 
L 2061 2627 
z
" transform="scale(0.015625)"/>
       <path id="CMSS17-65" d="M 2502 1377 
C 2502 1590 2490 2003 2285 2345 
C 2061 2713 1696 2816 1421 2816 
C 755 2816 192 2188 192 1375 
C 192 582 774 -64 1510 -64 
C 1798 -64 2150 19 2470 248 
C 2470 274 2458 414 2451 420 
C 2451 433 2432 630 2432 656 
C 2125 407 1773 325 1517 325 
C 1107 325 666 667 646 1377 
L 2502 1377 
z
M 698 1728 
C 781 2084 1062 2421 1421 2421 
C 1517 2421 1965 2421 2080 1728 
L 698 1728 
z
" transform="scale(0.015625)"/>
       <path id="CMSS17-70" d="M 966 333 
C 1178 129 1466 -5 1773 -5 
C 2368 -5 2880 603 2880 1412 
C 2880 2159 2496 2816 1946 2816 
C 1626 2816 1242 2702 954 2472 
L 954 2765 
L 480 2765 
L 480 -1216 
L 966 -1216 
L 966 333 
z
M 966 2100 
C 1018 2176 1235 2415 1587 2415 
C 2035 2415 2394 1960 2394 1412 
C 2394 787 1958 384 1530 384 
C 1402 384 1267 415 1139 523 
C 966 674 966 768 966 857 
L 966 2100 
z
" transform="scale(0.015625)"/>
       <path id="CMSS17-77" d="M 4013 2752 
L 3526 2752 
L 3187 1601 
C 3117 1358 2918 685 2893 371 
L 2886 371 
C 2874 564 2765 1024 2586 1633 
L 2259 2752 
L 1818 2752 
L 1498 1658 
C 1338 1101 1216 627 1203 371 
L 1197 371 
C 1171 749 909 1633 870 1773 
L 582 2752 
L 83 2752 
L 915 0 
L 1402 0 
C 1734 1096 1990 1943 2010 2370 
C 2022 2160 2131 1707 2195 1484 
L 2618 0 
L 3181 0 
L 4013 2752 
z
" transform="scale(0.015625)"/>
      </defs>
      <use xlink:href="#CMSS17-48" transform="scale(0.996264)"/>
      <use xlink:href="#CMSS17-6f" transform="translate(66.061519 0)scale(0.996264)"/>
      <use xlink:href="#CMSS17-72" transform="translate(110.302689 0)scale(0.996264)"/>
      <use xlink:href="#CMSS17-73" transform="translate(142.212461 0)scale(0.996264)"/>
      <use xlink:href="#CMSS17-65" transform="translate(178.126003 0)scale(0.996264)"/>
      <use xlink:href="#CMSS17-70" transform="translate(219.764825 0)scale(0.996264)"/>
      <use xlink:href="#CMSS17-6f" transform="translate(270.572207 0)scale(0.996264)"/>
      <use xlink:href="#CMSS17-77" transform="translate(314.813377 0)scale(0.996264)"/>
      <use xlink:href="#CMSS17-65" transform="translate(376.030468 0)scale(0.996264)"/>
      <use xlink:href="#CMSS17-72" transform="translate(417.66929 0)scale(0.996264)"/>
     </g>
    </g>
   </g>
   <g id="matplotlib.axis_2">
    <g id="text_2">
     <!-- Fuel consumption -->
     <g transform="translate(19.6533 208.041715)rotate(-90)scale(0.18 -0.18)">
      <defs>
       <path id="CMSS17-46" d="M 2918 1984 
L 2918 2373 
L 1101 2373 
L 1101 3968 
L 1882 3968 
C 1958 3968 2035 3968 2112 3968 
L 3168 3968 
L 3168 4375 
L 563 4375 
L 563 -32 
L 1101 -32 
L 1101 1984 
L 2918 1984 
z
" transform="scale(0.015625)"/>
       <path id="CMSS17-75" d="M 2618 2739 
L 2131 2739 
L 2131 972 
C 2131 498 1786 306 1421 306 
C 998 306 960 447 960 709 
L 960 2739 
L 474 2739 
L 474 678 
C 474 179 646 -64 1088 -64 
C 1306 -64 1798 -13 2144 306 
L 2144 0 
L 2618 0 
L 2618 2739 
z
" transform="scale(0.015625)"/>
       <path id="CMSS17-6c" d="M 947 4416 
L 474 4416 
L 474 0 
L 947 0 
L 947 4416 
z
" transform="scale(0.015625)"/>
       <path id="CMSS17-63" d="M 2464 2541 
C 2464 2585 2170 2714 2093 2739 
C 1882 2816 1613 2816 1542 2816 
C 710 2816 211 2093 211 1363 
C 211 595 768 -64 1517 -64 
C 1946 -64 2253 76 2502 242 
L 2464 664 
C 2189 453 1869 337 1523 337 
C 1024 337 698 774 698 1369 
C 698 1831 909 2414 1549 2414 
C 1901 2414 2099 2343 2394 2145 
L 2464 2541 
z
" transform="scale(0.015625)"/>
       <path id="CMSS17-6e" d="M 2618 1877 
C 2618 2283 2522 2816 1798 2816 
C 1389 2816 1120 2606 941 2389 
L 941 2758 
L 474 2758 
L 474 0 
L 960 0 
L 960 1559 
C 960 1964 1114 2428 1549 2428 
C 2112 2428 2131 2048 2131 1829 
L 2131 0 
L 2618 0 
L 2618 1877 
z
" transform="scale(0.015625)"/>
       <path id="CMSS17-6d" d="M 4288 1877 
C 4288 2308 4179 2816 3462 2816 
C 2982 2816 2694 2516 2566 2331 
C 2451 2670 2182 2816 1798 2816 
C 1363 2816 1088 2568 941 2389 
L 941 2758 
L 474 2758 
L 474 0 
L 960 0 
L 960 1559 
C 960 1939 1101 2428 1555 2428 
C 2138 2428 2138 2016 2138 1829 
L 2138 0 
L 2624 0 
L 2624 1559 
C 2624 1939 2765 2428 3219 2428 
C 3802 2428 3802 2016 3802 1829 
L 3802 0 
L 4288 0 
L 4288 1877 
z
" transform="scale(0.015625)"/>
       <path id="CMSS17-74" d="M 1069 2368 
L 1901 2368 
L 1901 2737 
L 1069 2737 
L 1069 3520 
L 614 3520 
L 614 2737 
L 109 2737 
L 109 2368 
L 602 2368 
L 602 749 
C 602 384 685 -64 1107 -64 
C 1427 -64 1722 25 2003 172 
L 1901 548 
C 1747 414 1562 337 1363 337 
C 1082 337 1069 696 1069 856 
L 1069 2368 
z
" transform="scale(0.015625)"/>
       <path id="CMSS17-69" d="M 979 4183 
L 442 4183 
L 442 3648 
L 979 3648 
L 979 4183 
z
M 947 2739 
L 474 2739 
L 474 0 
L 947 0 
L 947 2739 
z
" transform="scale(0.015625)"/>
      </defs>
      <use xlink:href="#CMSS17-46" transform="scale(0.996264)"/>
      <use xlink:href="#CMSS17-75" transform="translate(50.687105 0)scale(0.996264)"/>
      <use xlink:href="#CMSS17-65" transform="translate(98.892048 0)scale(0.996264)"/>
      <use xlink:href="#CMSS17-6c" transform="translate(140.530871 0)scale(0.996264)"/>
      <use xlink:href="#CMSS17-63" transform="translate(193.940706 0)scale(0.996264)"/>
      <use xlink:href="#CMSS17-6f" transform="translate(235.579528 0)scale(0.996264)"/>
      <use xlink:href="#CMSS17-6e" transform="translate(282.423152 0)scale(0.996264)"/>
      <use xlink:href="#CMSS17-73" transform="translate(330.628095 0)scale(0.996264)"/>
      <use xlink:href="#CMSS17-75" transform="translate(366.541637 0)scale(0.996264)"/>
      <use xlink:href="#CMSS17-6d" transform="translate(414.74658 0)scale(0.996264)"/>
      <use xlink:href="#CMSS17-70" transform="translate(488.975835 0)scale(0.996264)"/>
      <use xlink:href="#CMSS17-74" transform="translate(537.180778 0)scale(0.996264)"/>
      <use xlink:href="#CMSS17-69" transform="translate(571.012344 0)scale(0.996264)"/>
      <use xlink:href="#CMSS17-6f" transform="translate(593.193068 0)scale(0.996264)"/>
      <use xlink:href="#CMSS17-6e" transform="translate(640.036691 0)scale(0.996264)"/>
     </g>
    </g>
   </g>
   <g id="line2d_1">
    <defs>
     <path id="m4ad3e62a08" d="M 3 0 
L -3 -3 
L -3 3 
z
" style="stroke: #000000; stroke-linejoin: miter"/>
    </defs>
    <g>
     <use xlink:href="#m4ad3e62a08" x="288.655789" y="269.645455" style="stroke: #000000; stroke-linejoin: miter"/>
    </g>
   </g>
   <g id="line2d_2">
    <defs>
     <path id="m2206c22ca5" d="M 0 -3 
L -3 3 
L 3 3 
z
" style="stroke: #000000; stroke-linejoin: miter"/>
    </defs>
    <g>
     <use xlink:href="#m2206c22ca5" x="27.141364" y="10.2" style="stroke: #000000; stroke-linejoin: miter"/>
    </g>
   </g>
   <g id="patch_3">
    <path d="M 27.141364 282 
L 27.141364 10.2 
" style="fill: none; stroke: #000000; stroke-width: 0.5; stroke-linejoin: miter; stroke-linecap: square"/>
   </g>
   <g id="patch_4">
    <path d="M 16.855789 269.645455 
L 288.655789 269.645455 
" style="fill: none; stroke: #000000; stroke-width: 0.5; stroke-linejoin: miter; stroke-linecap: square"/>
   </g>
   <g id="legend_1">
    <g id="patch_5">
     <path d="M 183.040761 255.974 
L 278.855789 255.974 
Q 281.655789 255.974 281.655789 253.174 
L 281.655789 215.549943 
Q 281.655789 212.749943 278.855789 212.749943 
L 183.040761 212.749943 
Q 180.240761 212.749943 180.240761 215.549943 
L 180.240761 253.174 
Q 180.240761 255.974 183.040761 255.974 
z
" style="fill: #ffffff; opacity: 0.8; stroke: #cccccc; stroke-linejoin: miter"/>
    </g>
    <g id="PathCollection_3">
     <g>
      <use xlink:href="#mcbfe7ebe28" x="199.840761" y="224.474943" style="fill: #c0348b; stroke: #c0348b"/>
     </g>
    </g>
    <g id="text_3">
     <!-- Optimal -->
     <g transform="translate(213.840761 228.149943)scale(0.14 -0.14)">
      <defs>
       <path id="CMSS17-4f" d="M 4096 2178 
C 4096 3503 3219 4497 2214 4497 
C 1210 4497 333 3497 333 2178 
C 333 847 1222 -128 2214 -128 
C 3206 -128 4096 847 4096 2178 
z
M 2214 273 
C 1510 273 870 1057 870 2261 
C 870 3433 1549 4096 2214 4096 
C 2880 4096 3558 3433 3558 2261 
C 3558 1051 2912 273 2214 273 
z
" transform="scale(0.015625)"/>
       <path id="CMSS17-61" d="M 2406 1791 
C 2406 2392 1978 2808 1402 2808 
C 1120 2808 813 2757 461 2553 
L 499 2135 
C 659 2248 934 2432 1395 2432 
C 1722 2432 1920 2180 1920 1782 
L 1920 1536 
C 896 1536 256 1238 256 726 
C 256 461 416 -64 947 -64 
C 1043 -64 1562 -64 1933 217 
L 1933 -19 
L 2406 -19 
L 2406 1791 
z
M 1920 816 
C 1920 701 1920 548 1728 434 
C 1562 325 1350 325 1261 325 
C 941 325 723 511 723 744 
C 723 1211 1722 1211 1920 1211 
L 1920 816 
z
" transform="scale(0.015625)"/>
      </defs>
      <use xlink:href="#CMSS17-4f" transform="scale(0.996264)"/>
      <use xlink:href="#CMSS17-70" transform="translate(69.024255 0)scale(0.996264)"/>
      <use xlink:href="#CMSS17-74" transform="translate(117.229198 0)scale(0.996264)"/>
      <use xlink:href="#CMSS17-69" transform="translate(151.060765 0)scale(0.996264)"/>
      <use xlink:href="#CMSS17-6d" transform="translate(173.241488 0)scale(0.996264)"/>
      <use xlink:href="#CMSS17-61" transform="translate(247.470743 0)scale(0.996264)"/>
      <use xlink:href="#CMSS17-6c" transform="translate(292.392663 0)scale(0.996264)"/>
     </g>
    </g>
    <g id="PathCollection_4">
     <path d="M 199.840761 246.986972 
C 200.636371 246.986972 201.399501 246.670873 201.962082 246.108292 
C 202.524662 245.545711 202.840761 244.782581 202.840761 243.986972 
C 202.840761 243.191362 202.524662 242.428232 201.962082 241.865651 
C 201.399501 241.303071 200.636371 240.986972 199.840761 240.986972 
C 199.045152 240.986972 198.282022 241.303071 197.719441 241.865651 
C 197.15686 242.428232 196.840761 243.191362 196.840761 243.986972 
C 196.840761 244.782581 197.15686 245.545711 197.719441 246.108292 
C 198.282022 246.670873 199.045152 246.986972 199.840761 246.986972 
L 199.840761 246.986972 
z
" style="fill: none; stroke: #c0348b"/>
    </g>
    <g id="text_4">
     <!-- Dominated -->
     <g transform="translate(213.840761 247.661972)scale(0.14 -0.14)">
      <defs>
       <path id="CMSS17-44" d="M 570 4416 
L 570 0 
L 2144 0 
C 3194 0 4000 980 4000 2170 
C 4000 3398 3194 4416 2144 4416 
L 570 4416 
z
M 1094 357 
L 1094 4059 
L 2003 4059 
C 2861 4059 3475 3277 3475 2170 
C 3475 1107 2867 357 2003 357 
L 1094 357 
z
" transform="scale(0.015625)"/>
       <path id="CMSS17-64" d="M 2611 4416 
L 2138 4416 
L 2138 2438 
C 1939 2603 1613 2756 1254 2756 
C 672 2756 211 2131 211 1347 
C 211 562 666 -64 1235 -64 
C 1677 -64 1971 172 2125 306 
L 2125 -13 
L 2611 -13 
L 2611 4416 
z
M 2125 836 
C 2125 747 2125 653 1926 482 
C 1798 375 1645 325 1498 325 
C 1152 325 698 576 698 1340 
C 698 2134 1210 2368 1562 2368 
C 1798 2368 1990 2254 2125 2065 
L 2125 836 
z
" transform="scale(0.015625)"/>
      </defs>
      <use xlink:href="#CMSS17-44" transform="scale(0.996264)"/>
      <use xlink:href="#CMSS17-6f" transform="translate(67.542842 0)scale(0.996264)"/>
      <use xlink:href="#CMSS17-6d" transform="translate(114.386465 0)scale(0.996264)"/>
      <use xlink:href="#CMSS17-69" transform="translate(188.61572 0)scale(0.996264)"/>
      <use xlink:href="#CMSS17-6e" transform="translate(210.796443 0)scale(0.996264)"/>
      <use xlink:href="#CMSS17-61" transform="translate(259.001386 0)scale(0.996264)"/>
      <use xlink:href="#CMSS17-74" transform="translate(303.923306 0)scale(0.996264)"/>
      <use xlink:href="#CMSS17-65" transform="translate(337.754873 0)scale(0.996264)"/>
      <use xlink:href="#CMSS17-64" transform="translate(379.393695 0)scale(0.996264)"/>
     </g>
    </g>
   </g>
  </g>
 </g>
 <defs>
  <clipPath id="pe0274c53be">
   <rect x="16.855789" y="10.2" width="271.8" height="271.8"/>
  </clipPath>
 </defs>
</svg>
