<?xml version="1.0" encoding="utf-8" standalone="no"?>
<!DOCTYPE svg PUBLIC "-//W3C//DTD SVG 1.1//EN"
  "http://www.w3.org/Graphics/SVG/1.1/DTD/svg11.dtd">
<svg xmlns:xlink="http://www.w3.org/1999/xlink" width="181.542696pt" height="181.542696pt" viewBox="0 0 181.542696 181.542696" xmlns="http://www.w3.org/2000/svg" version="1.1">
 <metadata>
  <rdf:RDF xmlns:dc="http://purl.org/dc/elements/1.1/" xmlns:cc="http://creativecommons.org/ns#" xmlns:rdf="http://www.w3.org/1999/02/22-rdf-syntax-ns#">
   <cc:Work>
    <dc:type rdf:resource="http://purl.org/dc/dcmitype/StillImage"/>
    <dc:date>2023-09-25T11:02:54.353759</dc:date>
    <dc:format>image/svg+xml</dc:format>
    <dc:creator>
     <cc:Agent>
      <dc:title>Matplotlib v3.5.2, https://matplotlib.org/</dc:title>
     </cc:Agent>
    </dc:creator>
   </cc:Work>
  </rdf:RDF>
 </metadata>
 <defs>
  <style type="text/css">*{stroke-linejoin: round; stroke-linecap: butt}</style>
 </defs>
 <g id="figure_1">
  <g id="patch_1">
   <path d="M 0 181.542696 
L 181.542696 181.542696 
L 181.542696 0 
L 0 0 
L 0 181.542696 
z
" style="fill: none"/>
  </g>
  <g id="axes_1">
   <g id="patch_2">
    <path d="M 21.852696 159.69 
L 171.342696 159.69 
L 171.342696 10.2 
L 21.852696 10.2 
z
" style="fill: #ffffff"/>
   </g>
   <g id="PathCollection_1">
    <defs>
     <path id="mec761436a5" d="M 0 3 
C 0.795609 3 1.55874 2.683901 2.12132 2.12132 
C 2.683901 1.55874 3 0.795609 3 0 
C 3 -0.795609 2.683901 -1.55874 2.12132 -2.12132 
C 1.55874 -2.683901 0.795609 -3 0 -3 
C -0.795609 -3 -1.55874 -2.683901 -2.12132 -2.12132 
C -2.683901 -1.55874 -3 -0.795609 -3 0 
C -3 0.795609 -2.683901 1.55874 -2.12132 2.12132 
C -1.55874 2.683901 -0.795609 3 0 3 
z
" style="stroke: #000000; stroke-width: 0.5"/>
    </defs>
    <g clip-path="url(#pf23bceac0d)">
     <use xlink:href="#mec761436a5" x="39.972696" y="33.9825" style="fill: #e34a33; stroke: #000000; stroke-width: 0.5"/>
     <use xlink:href="#mec761436a5" x="41.366992" y="51.698703" style="fill: #e34a33; stroke: #000000; stroke-width: 0.5"/>
     <use xlink:href="#mec761436a5" x="45.515546" y="68.978675" style="fill: #e34a33; stroke: #000000; stroke-width: 0.5"/>
     <use xlink:href="#mec761436a5" x="52.316207" y="85.396924" style="fill: #e34a33; stroke: #000000; stroke-width: 0.5"/>
     <use xlink:href="#mec761436a5" x="61.601522" y="100.54918" style="fill: #e34a33; stroke: #000000; stroke-width: 0.5"/>
     <use xlink:href="#mec761436a5" x="73.142853" y="114.062343" style="fill: #e34a33; stroke: #000000; stroke-width: 0.5"/>
     <use xlink:href="#mec761436a5" x="86.656016" y="125.603675" style="fill: #e34a33; stroke: #000000; stroke-width: 0.5"/>
     <use xlink:href="#mec761436a5" x="101.808272" y="134.888989" style="fill: #e34a33; stroke: #000000; stroke-width: 0.5"/>
     <use xlink:href="#mec761436a5" x="118.226522" y="141.68965" style="fill: #e34a33; stroke: #000000; stroke-width: 0.5"/>
     <use xlink:href="#mec761436a5" x="135.506493" y="145.838205" style="fill: #e34a33; stroke: #000000; stroke-width: 0.5"/>
    </g>
   </g>
   <g id="PathCollection_2">
    <defs>
     <path id="m6a8249e1d6" d="M 0 3 
C 0.795609 3 1.55874 2.683901 2.12132 2.12132 
C 2.683901 1.55874 3 0.795609 3 0 
C 3 -0.795609 2.683901 -1.55874 2.12132 -2.12132 
C 1.55874 -2.683901 0.795609 -3 0 -3 
C -0.795609 -3 -1.55874 -2.683901 -2.12132 -2.12132 
C -2.683901 -1.55874 -3 -0.795609 -3 0 
C -3 0.795609 -2.683901 1.55874 -2.12132 2.12132 
C -1.55874 2.683901 -0.795609 3 0 3 
z
" style="stroke: #000000; stroke-width: 0.5"/>
    </defs>
    <g clip-path="url(#pf23bceac0d)">
     <use xlink:href="#m6a8249e1d6" x="76.892775" y="82.789294" style="fill: #fdbb84; stroke: #000000; stroke-width: 0.5"/>
     <use xlink:href="#m6a8249e1d6" x="111.53381" y="114.421277" style="fill: #fdbb84; stroke: #000000; stroke-width: 0.5"/>
     <use xlink:href="#m6a8249e1d6" x="120.198975" y="118.349519" style="fill: #fdbb84; stroke: #000000; stroke-width: 0.5"/>
     <use xlink:href="#m6a8249e1d6" x="67.979478" y="64.673765" style="fill: #fdbb84; stroke: #000000; stroke-width: 0.5"/>
     <use xlink:href="#m6a8249e1d6" x="83.107401" y="91.360243" style="fill: #fdbb84; stroke: #000000; stroke-width: 0.5"/>
     <use xlink:href="#m6a8249e1d6" x="134.169513" y="122.556403" style="fill: #fdbb84; stroke: #000000; stroke-width: 0.5"/>
     <use xlink:href="#m6a8249e1d6" x="121.718445" y="118.928613" style="fill: #fdbb84; stroke: #000000; stroke-width: 0.5"/>
     <use xlink:href="#m6a8249e1d6" x="62.633013" y="35.349731" style="fill: #fdbb84; stroke: #000000; stroke-width: 0.5"/>
     <use xlink:href="#m6a8249e1d6" x="90.572371" y="99.4294" style="fill: #fdbb84; stroke: #000000; stroke-width: 0.5"/>
     <use xlink:href="#m6a8249e1d6" x="71.307399" y="72.689658" style="fill: #fdbb84; stroke: #000000; stroke-width: 0.5"/>
    </g>
   </g>
   <g id="PathCollection_3">
    <defs>
     <path id="ma5b61634ee" d="M 0 3 
C 0.795609 3 1.55874 2.683901 2.12132 2.12132 
C 2.683901 1.55874 3 0.795609 3 0 
C 3 -0.795609 2.683901 -1.55874 2.12132 -2.12132 
C 1.55874 -2.683901 0.795609 -3 0 -3 
C -0.795609 -3 -1.55874 -2.683901 -2.12132 -2.12132 
C -2.683901 -1.55874 -3 -0.795609 -3 0 
C -3 0.795609 -2.683901 1.55874 -2.12132 2.12132 
C -1.55874 2.683901 -0.795609 3 0 3 
z
" style="stroke: #000000; stroke-width: 0.5"/>
    </defs>
    <g clip-path="url(#pf23bceac0d)">
     <use xlink:href="#ma5b61634ee" x="99.318887" y="75.353769" style="fill: #fee8c8; stroke: #000000; stroke-width: 0.5"/>
     <use xlink:href="#ma5b61634ee" x="100.787883" y="77.200469" style="fill: #fee8c8; stroke: #000000; stroke-width: 0.5"/>
     <use xlink:href="#ma5b61634ee" x="100.684979" y="77.075315" style="fill: #fee8c8; stroke: #000000; stroke-width: 0.5"/>
     <use xlink:href="#ma5b61634ee" x="101.211085" y="77.708863" style="fill: #fee8c8; stroke: #000000; stroke-width: 0.5"/>
     <use xlink:href="#ma5b61634ee" x="121.89216" y="94.278437" style="fill: #fee8c8; stroke: #000000; stroke-width: 0.5"/>
     <use xlink:href="#ma5b61634ee" x="101.476139" y="78.022213" style="fill: #fee8c8; stroke: #000000; stroke-width: 0.5"/>
     <use xlink:href="#ma5b61634ee" x="111.204777" y="87.383783" style="fill: #fee8c8; stroke: #000000; stroke-width: 0.5"/>
     <use xlink:href="#ma5b61634ee" x="88.681321" y="55.233698" style="fill: #fee8c8; stroke: #000000; stroke-width: 0.5"/>
     <use xlink:href="#ma5b61634ee" x="96.710162" y="71.712276" style="fill: #fee8c8; stroke: #000000; stroke-width: 0.5"/>
     <use xlink:href="#ma5b61634ee" x="94.584291" y="68.315283" style="fill: #fee8c8; stroke: #000000; stroke-width: 0.5"/>
    </g>
   </g>
   <g id="PathCollection_4"/>
   <g id="matplotlib.axis_1">
    <g id="text_1">
     <!-- $f_1({\bf x })$ -->
     <g transform="translate(81.022421 170.855772)scale(0.14 -0.14)">
      <defs>
       <path id="CMMI12-66" d="M 2854 2566 
C 2982 2566 3034 2566 3034 2688 
C 3034 2752 2982 2752 2867 2752 
L 2349 2752 
C 2470 3429 2560 3897 2611 4107 
C 2650 4265 2784 4416 2950 4416 
C 3085 4416 3219 4358 3283 4298 
C 3034 4272 2957 4082 2957 3969 
C 2957 3837 3053 3759 3174 3759 
C 3302 3759 3494 3870 3494 4119 
C 3494 4393 3226 4544 2944 4544 
C 2669 4544 2400 4334 2272 4078 
C 2157 3848 2093 3611 1946 2752 
L 1517 2752 
C 1395 2752 1331 2752 1331 2637 
C 1331 2566 1370 2566 1498 2566 
L 1907 2566 
C 1792 1976 1530 542 1382 -137 
C 1274 -689 1178 -1152 858 -1152 
C 838 -1152 653 -1152 538 -1031 
C 864 -1005 864 -726 864 -720 
C 864 -593 768 -517 646 -517 
C 518 -517 326 -625 326 -867 
C 326 -1140 608 -1280 858 -1280 
C 1510 -1280 1779 -118 1850 199 
C 1965 688 2278 2376 2310 2566 
L 2854 2566 
z
" transform="scale(0.015625)"/>
       <path id="CMR17-31" d="M 1702 4058 
C 1702 4192 1696 4192 1606 4192 
C 1357 3916 979 3827 621 3827 
C 602 3827 570 3827 563 3808 
C 557 3795 557 3782 557 3648 
C 755 3648 1088 3686 1344 3839 
L 1344 461 
C 1344 236 1331 160 781 160 
L 589 160 
L 589 0 
C 896 0 1216 0 1523 0 
C 1830 0 2150 0 2458 0 
L 2458 160 
L 2266 160 
C 1715 160 1702 230 1702 458 
L 1702 4058 
z
" transform="scale(0.015625)"/>
       <path id="CMR17-28" d="M 1958 -1561 
C 1958 -1555 1958 -1542 1939 -1523 
C 1645 -1224 858 -407 858 1581 
C 858 3569 1632 4379 1946 4697 
C 1946 4704 1958 4717 1958 4736 
C 1958 4755 1939 4768 1914 4768 
C 1843 4768 1299 4296 986 3594 
C 666 2887 576 2199 576 1588 
C 576 1128 621 351 1005 -471 
C 1312 -1135 1837 -1600 1914 -1600 
C 1946 -1600 1958 -1587 1958 -1561 
z
" transform="scale(0.015625)"/>
       <path id="CMBX12-78" d="M 2157 1567 
L 2899 2415 
C 2970 2498 3027 2549 3558 2549 
L 3558 2816 
C 3200 2816 3187 2816 2970 2816 
C 2784 2816 2509 2816 2330 2822 
L 2330 2549 
C 2451 2549 2586 2517 2586 2472 
C 2586 2460 2554 2415 2541 2402 
L 1984 1778 
L 1350 2549 
L 1619 2549 
L 1619 2822 
C 1472 2816 1037 2816 864 2816 
C 672 2816 326 2816 147 2822 
L 147 2549 
L 602 2549 
L 1600 1338 
L 768 401 
C 691 312 646 267 115 267 
L 115 0 
C 499 0 512 0 710 0 
C 896 0 1165 0 1344 -6 
L 1344 267 
C 1222 267 1088 299 1088 344 
C 1088 350 1088 356 1133 407 
L 1773 1128 
L 2483 267 
L 2214 267 
L 2214 -6 
C 2368 0 2797 0 2976 0 
C 3168 0 3507 0 3686 -6 
L 3686 267 
L 3238 267 
L 2157 1567 
z
" transform="scale(0.015625)"/>
       <path id="CMR17-29" d="M 1683 1581 
C 1683 2040 1638 2817 1254 3639 
C 947 4303 422 4768 346 4768 
C 326 4768 301 4761 301 4729 
C 301 4717 307 4710 314 4697 
C 621 4378 1402 3568 1402 1584 
C 1402 -407 627 -1217 314 -1537 
C 307 -1549 301 -1556 301 -1568 
C 301 -1600 326 -1600 346 -1600 
C 416 -1600 960 -1128 1274 -426 
C 1594 281 1683 969 1683 1581 
z
" transform="scale(0.015625)"/>
      </defs>
      <use xlink:href="#CMMI12-66" transform="scale(0.996264)"/>
      <use xlink:href="#CMR17-31" transform="translate(48.083238 -14.943915)scale(0.697382)"/>
      <use xlink:href="#CMR17-28" transform="translate(80.564552 0)scale(0.996264)"/>
      <use xlink:href="#CMBX12-78" transform="translate(115.845319 0)scale(0.996264)"/>
      <use xlink:href="#CMR17-29" transform="translate(174.998495 0)scale(0.996264)"/>
     </g>
    </g>
   </g>
   <g id="matplotlib.axis_2">
    <g id="text_2">
     <!-- $f_2({\bf x })$ -->
     <g transform="translate(17.660772 100.520275)rotate(-90)scale(0.14 -0.14)">
      <defs>
       <path id="CMR17-32" d="M 2669 989 
L 2554 989 
C 2490 536 2438 459 2413 420 
C 2381 369 1920 369 1830 369 
L 602 369 
C 832 619 1280 1072 1824 1597 
C 2214 1967 2669 2402 2669 3035 
C 2669 3790 2067 4224 1395 4224 
C 691 4224 262 3604 262 3030 
C 262 2780 448 2748 525 2748 
C 589 2748 781 2787 781 3010 
C 781 3207 614 3264 525 3264 
C 486 3264 448 3258 422 3245 
C 544 3790 915 4058 1306 4058 
C 1862 4058 2227 3617 2227 3035 
C 2227 2479 1901 2000 1536 1584 
L 262 146 
L 262 0 
L 2515 0 
L 2669 989 
z
" transform="scale(0.015625)"/>
      </defs>
      <use xlink:href="#CMMI12-66" transform="scale(0.996264)"/>
      <use xlink:href="#CMR17-32" transform="translate(48.083238 -14.943915)scale(0.697382)"/>
      <use xlink:href="#CMR17-28" transform="translate(80.564552 0)scale(0.996264)"/>
      <use xlink:href="#CMBX12-78" transform="translate(115.845319 0)scale(0.996264)"/>
      <use xlink:href="#CMR17-29" transform="translate(174.998495 0)scale(0.996264)"/>
     </g>
    </g>
   </g>
   <g id="line2d_1">
    <defs>
     <path id="ma67b1fe013" d="M 3 0 
L -3 -3 
L -3 3 
z
" style="stroke: #000000; stroke-linejoin: miter"/>
    </defs>
    <g>
     <use xlink:href="#ma67b1fe013" x="171.342696" y="152.895" style="stroke: #000000; stroke-linejoin: miter"/>
    </g>
   </g>
   <g id="line2d_2">
    <defs>
     <path id="me3248e0bd5" d="M 0 -3 
L -3 3 
L 3 3 
z
" style="stroke: #000000; stroke-linejoin: miter"/>
    </defs>
    <g>
     <use xlink:href="#me3248e0bd5" x="28.647696" y="10.2" style="stroke: #000000; stroke-linejoin: miter"/>
    </g>
   </g>
   <g id="patch_3">
    <path d="M 28.647696 159.69 
L 28.647696 10.2 
" style="fill: none; stroke: #000000; stroke-width: 0.5; stroke-linejoin: miter; stroke-linecap: square"/>
   </g>
   <g id="patch_4">
    <path d="M 21.852696 152.895 
L 171.342696 152.895 
" style="fill: none; stroke: #000000; stroke-width: 0.5; stroke-linejoin: miter; stroke-linecap: square"/>
   </g>
   <g id="legend_1">
    <g id="patch_5">
     <path d="M 107.652707 60.011535 
L 164.342696 60.011535 
Q 166.342696 60.011535 166.342696 58.011535 
L 166.342696 17.2 
Q 166.342696 15.2 164.342696 15.2 
L 107.652707 15.2 
Q 105.652707 15.2 105.652707 17.2 
L 105.652707 58.011535 
Q 105.652707 60.011535 107.652707 60.011535 
z
" style="fill: #ffffff; opacity: 0.8; stroke: #cccccc; stroke-linejoin: miter"/>
    </g>
    <g id="PathCollection_5">
     <g>
      <use xlink:href="#mec761436a5" x="119.652707" y="23.575" style="fill: #e34a33; stroke: #000000; stroke-width: 0.5"/>
     </g>
    </g>
    <g id="text_3">
     <!-- $Rank\ 0$ -->
     <g transform="translate(129.652707 26.2)scale(0.1 -0.1)">
      <defs>
       <path id="CMMI12-52" d="M 2355 3924 
C 2413 4160 2438 4160 2688 4160 
L 3149 4160 
C 3699 4160 4109 3995 4109 3499 
C 4109 3175 3942 2240 2656 2240 
L 1933 2240 
L 2355 3924 
z
M 3245 2169 
C 4038 2341 4659 2851 4659 3398 
C 4659 3894 4154 4352 3264 4352 
L 1530 4352 
C 1402 4352 1344 4352 1344 4226 
C 1344 4160 1389 4160 1510 4160 
C 1894 4160 1894 4112 1894 4045 
C 1894 4033 1894 3994 1869 3899 
L 1005 479 
C 947 256 934 192 493 192 
C 346 192 301 192 301 71 
C 301 7 371 7 390 7 
C 506 7 640 7 762 7 
L 1517 7 
C 1632 7 1766 7 1882 7 
C 1933 7 2003 7 2003 128 
C 2003 192 1946 192 1850 192 
C 1459 192 1459 243 1459 306 
C 1459 313 1459 357 1472 407 
L 1901 2112 
L 2669 2112 
C 3277 2112 3392 1731 3392 1522 
C 3392 1427 3328 1179 3283 1014 
C 3213 723 3194 652 3194 532 
C 3194 82 3565 -128 3994 -128 
C 4512 -128 4736 501 4736 591 
C 4736 635 4704 654 4666 654 
C 4614 654 4602 616 4589 565 
C 4435 114 4173 0 4013 0 
C 3853 0 3750 70 3750 356 
C 3750 509 3827 1088 3834 1120 
C 3866 1355 3866 1380 3866 1432 
C 3866 1896 3488 2093 3245 2169 
z
" transform="scale(0.015625)"/>
       <path id="CMMI12-61" d="M 1926 760 
C 1894 651 1894 639 1805 517 
C 1664 338 1382 64 1082 64 
C 819 64 672 300 672 677 
C 672 1028 870 1743 992 2012 
C 1210 2459 1510 2689 1760 2689 
C 2182 2689 2266 2165 2266 2114 
C 2266 2108 2246 2024 2240 2012 
L 1926 760 
z
M 2336 2395 
C 2266 2561 2093 2816 1760 2816 
C 1037 2816 256 1884 256 939 
C 256 307 627 -64 1062 -64 
C 1414 -64 1715 211 1894 422 
C 1958 45 2259 -64 2451 -64 
C 2643 -64 2797 51 2912 281 
C 3014 498 3104 888 3104 913 
C 3104 945 3078 971 3040 971 
C 2982 971 2976 939 2950 843 
C 2854 466 2733 64 2470 64 
C 2285 64 2272 230 2272 358 
C 2272 505 2291 575 2349 824 
C 2394 984 2426 1124 2477 1309 
C 2714 2267 2771 2497 2771 2535 
C 2771 2625 2701 2695 2605 2695 
C 2400 2695 2349 2472 2336 2395 
z
" transform="scale(0.015625)"/>
       <path id="CMMI12-6e" d="M 1318 1871 
C 1331 1910 1491 2229 1728 2433 
C 1894 2586 2112 2689 2362 2689 
C 2618 2689 2707 2497 2707 2242 
C 2707 1878 2445 1150 2317 805 
C 2259 651 2227 568 2227 453 
C 2227 166 2426 -64 2733 -64 
C 3328 -64 3552 875 3552 913 
C 3552 945 3526 971 3488 971 
C 3430 971 3424 952 3392 843 
C 3245 319 3002 64 2752 64 
C 2688 64 2586 64 2586 269 
C 2586 429 2656 621 2694 710 
C 2822 1063 3091 1780 3091 2145 
C 3091 2528 2867 2816 2381 2816 
C 1811 2816 1510 2415 1395 2255 
C 1376 2618 1114 2816 832 2816 
C 627 2816 486 2695 378 2478 
C 262 2248 173 1865 173 1839 
C 173 1814 198 1782 243 1782 
C 294 1782 301 1788 339 1935 
C 442 2325 557 2689 813 2689 
C 960 2689 1011 2586 1011 2395 
C 1011 2254 947 2005 902 1807 
L 723 1118 
C 698 996 627 709 595 594 
C 550 428 480 128 480 96 
C 480 6 550 -64 646 -64 
C 723 -64 813 -26 864 70 
C 877 102 934 326 966 453 
L 1107 1028 
L 1318 1871 
z
" transform="scale(0.015625)"/>
       <path id="CMMI12-6b" d="M 1798 4257 
C 1805 4283 1818 4321 1818 4352 
C 1818 4416 1754 4416 1741 4416 
C 1734 4416 1504 4393 1389 4377 
C 1280 4377 1184 4358 1069 4358 
C 915 4345 870 4339 870 4224 
C 870 4160 934 4160 998 4160 
C 1325 4160 1325 4103 1325 4040 
C 1325 4015 1325 4002 1293 3888 
L 378 248 
C 352 152 352 140 352 101 
C 352 -38 461 -64 525 -64 
C 704 -64 742 77 794 275 
L 1094 1469 
C 1555 1418 1830 1226 1830 920 
C 1830 881 1830 856 1811 760 
C 1786 664 1786 588 1786 556 
C 1786 185 2029 -64 2355 -64 
C 2650 -64 2803 204 2854 294 
C 2989 530 3072 888 3072 913 
C 3072 945 3046 971 3008 971 
C 2950 971 2944 945 2918 843 
C 2829 511 2694 64 2368 64 
C 2240 64 2157 128 2157 370 
C 2157 492 2182 632 2208 728 
C 2234 843 2234 849 2234 926 
C 2234 1303 1894 1514 1306 1590 
C 1536 1731 1766 1980 1856 2076 
C 2221 2484 2470 2689 2765 2689 
C 2912 2689 2950 2650 2995 2612 
C 2758 2586 2669 2420 2669 2293 
C 2669 2139 2790 2088 2880 2088 
C 3053 2088 3206 2235 3206 2440 
C 3206 2625 3059 2816 2771 2816 
C 2419 2816 2131 2567 1677 2056 
C 1613 1980 1376 1737 1139 1648 
L 1798 4257 
z
" transform="scale(0.015625)"/>
       <path id="CMR17-30" d="M 2688 2025 
C 2688 2416 2682 3080 2413 3591 
C 2176 4039 1798 4198 1466 4198 
C 1158 4198 768 4058 525 3597 
C 269 3118 243 2524 243 2025 
C 243 1661 250 1106 448 619 
C 723 -39 1216 -128 1466 -128 
C 1760 -128 2208 -7 2470 600 
C 2662 1042 2688 1559 2688 2025 
z
M 1466 -26 
C 1056 -26 813 325 723 812 
C 653 1188 653 1738 653 2096 
C 653 2588 653 2997 736 3387 
C 858 3929 1216 4096 1466 4096 
C 1728 4096 2067 3923 2189 3400 
C 2272 3036 2278 2607 2278 2096 
C 2278 1680 2278 1169 2202 792 
C 2067 95 1690 -26 1466 -26 
z
" transform="scale(0.015625)"/>
      </defs>
      <use xlink:href="#CMMI12-52" transform="scale(0.996264)"/>
      <use xlink:href="#CMMI12-61" transform="translate(75.070962 0)scale(0.996264)"/>
      <use xlink:href="#CMMI12-6e" transform="translate(126.27882 0)scale(0.996264)"/>
      <use xlink:href="#CMMI12-6b" transform="translate(184.508867 0)scale(0.996264)"/>
      <use xlink:href="#CMR17-30" transform="translate(269.81718 0)scale(0.996264)"/>
     </g>
    </g>
    <g id="PathCollection_6">
     <g>
      <use xlink:href="#m6a8249e1d6" x="119.652707" y="37.512178" style="fill: #fdbb84; stroke: #000000; stroke-width: 0.5"/>
     </g>
    </g>
    <g id="text_4">
     <!-- $Rank\ 1$ -->
     <g transform="translate(129.652707 40.137178)scale(0.1 -0.1)">
      <use xlink:href="#CMMI12-52" transform="scale(0.996264)"/>
      <use xlink:href="#CMMI12-61" transform="translate(75.070962 0)scale(0.996264)"/>
      <use xlink:href="#CMMI12-6e" transform="translate(126.27882 0)scale(0.996264)"/>
      <use xlink:href="#CMMI12-6b" transform="translate(184.508867 0)scale(0.996264)"/>
      <use xlink:href="#CMR17-31" transform="translate(269.81718 0)scale(0.996264)"/>
     </g>
    </g>
    <g id="PathCollection_7">
     <g>
      <use xlink:href="#ma5b61634ee" x="119.652707" y="51.449357" style="fill: #fee8c8; stroke: #000000; stroke-width: 0.5"/>
     </g>
    </g>
    <g id="text_5">
     <!-- $Rank\ 2$ -->
     <g transform="translate(129.652707 54.074357)scale(0.1 -0.1)">
      <use xlink:href="#CMMI12-52" transform="scale(0.996264)"/>
      <use xlink:href="#CMMI12-61" transform="translate(75.070962 0)scale(0.996264)"/>
      <use xlink:href="#CMMI12-6e" transform="translate(126.27882 0)scale(0.996264)"/>
      <use xlink:href="#CMMI12-6b" transform="translate(184.508867 0)scale(0.996264)"/>
      <use xlink:href="#CMR17-32" transform="translate(269.81718 0)scale(0.996264)"/>
     </g>
    </g>
   </g>
  </g>
 </g>
 <defs>
  <clipPath id="pf23bceac0d">
   <rect x="21.852696" y="10.2" width="149.49" height="149.49"/>
  </clipPath>
 </defs>
</svg>
