<svg xmlns="http://www.w3.org/2000/svg" xmlns:xlink="http://www.w3.org/1999/xlink" version="1.1" width="241.74pt" height="82.51pt" viewBox="0 0 241.74 82.51">
<defs>
<clipPath id="clip_0">
<path transform="matrix(1,0,0,-1,47.54,51.554)" d="M-9.2388-4.58304H194.00365V50.41081H-9.2388Z"/>
</clipPath>
</defs>
<path transform="matrix(1,0,0,-1,47.54,51.554)" stroke-width=".3985" stroke-linecap="butt" stroke-miterlimit="10" stroke-linejoin="miter" fill="none" stroke="#cbcbcb" d="M-9.2388 0H194.00365M-9.2388 22.51184H194.00365M-9.2388 45.0237H194.00365"/>
<path transform="matrix(1,0,0,-1,47.54,51.554)" stroke-width=".19925" stroke-linecap="butt" stroke-miterlimit="10" stroke-linejoin="miter" fill="none" stroke="#929292" d="M6.26321-4.58304V-.33128M21.92125-4.58304V-.33128M37.57928-4.58304V-.33128M53.23732-4.58304V-.33128M68.89536-4.58304V-.33128M84.55339-4.58304V-.33128M100.21144-4.58304V-.33128M115.86948-4.58304V-.33128M131.52751-4.58304V-.33128M147.18555-4.58304V-.33128M162.84358-4.58304V-.33128M178.50162-4.58304V-.33128M6.26321 50.41081V46.15907M21.92125 50.41081V46.15907M37.57928 50.41081V46.15907M53.23732 50.41081V46.15907M68.89536 50.41081V46.15907M84.55339 50.41081V46.15907M100.21144 50.41081V46.15907M115.86948 50.41081V46.15907M131.52751 50.41081V46.15907M147.18555 50.41081V46.15907M162.84358 50.41081V46.15907M178.50162 50.41081V46.15907"/>
<path transform="matrix(1,0,0,-1,47.54,51.554)" stroke-width=".19925" stroke-linecap="butt" stroke-miterlimit="10" stroke-linejoin="miter" fill="none" stroke="#929292" d="M-9.2388 0H-4.98642M-9.2388 22.51184H-4.98642M-9.2388 45.0237H-4.98642M194.00365 0H189.75127M194.00365 22.51184H189.75127M194.00365 45.0237H189.75127"/>
<path transform="matrix(1,0,0,-1,47.54,51.554)" stroke-width=".3985" stroke-linecap="butt" stroke-miterlimit="10" stroke-linejoin="miter" fill="none" stroke="#000000" d="M-9.2388-4.58304V50.41081H194.00365V-4.58304H-9.2388Z"/>
<text xml:space="preserve" transform="matrix(1 0 -0 1 0 82.509998)" font-size="9.9626" font-family="CMMI10" font-style="italic"><tspan y="-18.564" x="48.721">x</tspan></text>
<text xml:space="preserve" transform="matrix(1 0 -0 1 0 82.509998)" font-size="6.9738" font-family="CMR7"><tspan y="-17.07" x="54.415">0</tspan></text>
<text xml:space="preserve" transform="matrix(1 0 -0 1 0 82.509998)" font-size="9.9626" font-family="CMMI10" font-style="italic"><tspan y="-18.564" x="64.379">x</tspan></text>
<text xml:space="preserve" transform="matrix(1 0 -0 1 0 82.509998)" font-size="6.9738" font-family="CMR7"><tspan y="-17.07" x="70.073">1</tspan></text>
<text xml:space="preserve" transform="matrix(1 0 -0 1 0 82.509998)" font-size="9.9626" font-family="CMMI10" font-style="italic"><tspan y="-18.564" x="80.037">x</tspan></text>
<text xml:space="preserve" transform="matrix(1 0 -0 1 0 82.509998)" font-size="6.9738" font-family="CMR7"><tspan y="-17.07" x="85.731">2</tspan></text>
<text xml:space="preserve" transform="matrix(1 0 -0 1 0 82.509998)" font-size="9.9626" font-family="CMMI10" font-style="italic"><tspan y="-18.564" x="95.695">x</tspan></text>
<text xml:space="preserve" transform="matrix(1 0 -0 1 0 82.509998)" font-size="6.9738" font-family="CMR7"><tspan y="-17.07" x="101.389">3</tspan></text>
<text xml:space="preserve" transform="matrix(1 0 -0 1 .0000076293949 82.509998)" font-size="9.9626" font-family="CMMI10" font-style="italic"><tspan y="-18.564" x="111.352">x</tspan></text>
<text xml:space="preserve" transform="matrix(1 0 -0 1 .0000076293949 82.509998)" font-size="6.9738" font-family="CMR7"><tspan y="-17.07" x="117.046">4</tspan></text>
<text xml:space="preserve" transform="matrix(1 0 -0 1 0 82.509998)" font-size="9.9626" font-family="CMMI10" font-style="italic"><tspan y="-18.564" x="127.01">x</tspan></text>
<text xml:space="preserve" transform="matrix(1 0 -0 1 0 82.509998)" font-size="6.9738" font-family="CMR7"><tspan y="-17.07" x="132.704">5</tspan></text>
<text xml:space="preserve" transform="matrix(1 0 -0 1 0 82.509998)" font-size="9.9626" font-family="CMMI10" font-style="italic"><tspan y="-18.564" x="142.668">x</tspan></text>
<text xml:space="preserve" transform="matrix(1 0 -0 1 0 82.509998)" font-size="6.9738" font-family="CMR7"><tspan y="-17.07" x="148.362">6</tspan></text>
<text xml:space="preserve" transform="matrix(1 0 -0 1 0 82.509998)" font-size="9.9626" font-family="CMMI10" font-style="italic"><tspan y="-18.564" x="158.326">x</tspan></text>
<text xml:space="preserve" transform="matrix(1 0 -0 1 0 82.509998)" font-size="6.9738" font-family="CMR7"><tspan y="-17.07" x="164.02">7</tspan></text>
<text xml:space="preserve" transform="matrix(1 0 -0 1 .000015258789 82.509998)" font-size="9.9626" font-family="CMMI10" font-style="italic"><tspan y="-18.564" x="173.984">x</tspan></text>
<text xml:space="preserve" transform="matrix(1 0 -0 1 .000015258789 82.509998)" font-size="6.9738" font-family="CMR7"><tspan y="-17.07" x="179.678">8</tspan></text>
<text xml:space="preserve" transform="matrix(1 0 -0 1 0 82.509998)" font-size="9.9626" font-family="CMMI10" font-style="italic"><tspan y="-18.564" x="189.642">x</tspan></text>
<text xml:space="preserve" transform="matrix(1 0 -0 1 0 82.509998)" font-size="6.9738" font-family="CMR7"><tspan y="-17.07" x="195.336">9</tspan></text>
<text xml:space="preserve" transform="matrix(1 0 -0 1 0 82.509998)" font-size="9.9626" font-family="CMMI10" font-style="italic"><tspan y="-18.564" x="203.314">x</tspan></text>
<text xml:space="preserve" transform="matrix(1 0 -0 1 0 82.509998)" font-size="6.9738" font-family="CMR7"><tspan y="-17.07" x="209.008 212.98307">10</tspan></text>
<text xml:space="preserve" transform="matrix(1 0 -0 1 .000015258789 82.509998)" font-size="9.9626" font-family="CMMI10" font-style="italic"><tspan y="-18.564" x="218.972">x</tspan></text>
<text xml:space="preserve" transform="matrix(1 0 -0 1 .000015258789 82.509998)" font-size="6.9738" font-family="CMR7"><tspan y="-17.07" x="224.666 228.64107">11</tspan></text>
<text xml:space="preserve" transform="matrix(1 0 -0 1 .0000019073487 82.51)" font-size="9.9626" font-family="CMR10"><tspan y="-27.746" x="29.8">0</tspan></text>
<text xml:space="preserve" transform="matrix(1 0 -0 1 .0000019073487 82.509998)" font-size="9.9626" font-family="CMR10"><tspan y="-50.258" x="17.07">0</tspan></text>
<text xml:space="preserve" transform="matrix(1 0 -0 1 .0000019073487 82.509998)" font-size="9.9626" font-family="CMMI10" font-style="italic"><tspan y="-50.258" x="22.050999">.</tspan></text>
<text xml:space="preserve" transform="matrix(1 0 -0 1 .0000019073487 82.509998)" font-size="9.9626" font-family="CMR10"><tspan y="-50.258" x="24.818999 29.800299">05</tspan></text>
<text xml:space="preserve" transform="matrix(1 0 -0 1 0 82.509998)" font-size="9.9626" font-family="CMR10"><tspan y="-72.769" x="22.051">0</tspan></text>
<text xml:space="preserve" transform="matrix(1 0 -0 1 0 82.509998)" font-size="9.9626" font-family="CMMI10" font-style="italic"><tspan y="-72.769" x="27.032002">.</tspan></text>
<text xml:space="preserve" transform="matrix(1 0 -0 1 0 82.509998)" font-size="9.9626" font-family="CMR10"><tspan y="-72.769" x="29.800002">1</tspan></text>
<g clip-path="url(#clip_0)">
<path transform="matrix(1,0,0,-1,47.54,51.554)" stroke-width=".3985" stroke-linecap="butt" stroke-miterlimit="10" stroke-linejoin="miter" fill="none" stroke="#000000" d="M6.26321 16.83131V15.0968M1.25264 15.0968H11.27376"/>
<path transform="matrix(1,0,0,-1,47.54,51.554)" stroke-width=".3985" stroke-linecap="butt" stroke-miterlimit="10" stroke-linejoin="miter" fill="none" stroke="#000000" d="M6.26321 22.58508V26.35237M1.25264 26.35237H11.27376"/>
<path transform="matrix(1,0,0,-1,47.54,51.554)" stroke-width=".3985" stroke-linecap="butt" stroke-miterlimit="10" stroke-linejoin="miter" fill="none" stroke="#000000" d="M0 16.83131V22.58508H12.52643V16.83131ZM12.52643 22.58508"/>
<path transform="matrix(1,0,0,-1,47.54,51.554)" stroke-width=".3985" stroke-linecap="butt" stroke-miterlimit="10" stroke-linejoin="miter" fill="none" stroke="#000000" d="M0 18.47017H12.52643"/>
<path transform="matrix(1,0,0,-1,47.54,51.554)" stroke-width=".3985" stroke-linecap="butt" stroke-miterlimit="10" stroke-linejoin="miter" fill="none" stroke="#000000" d=""/>
<path transform="matrix(1,0,0,-1,47.54,51.554)" stroke-width=".3985" stroke-linecap="butt" stroke-miterlimit="10" stroke-linejoin="miter" fill="none" stroke="#000000" d="M21.92125 12.5554V10.70004M16.91068 10.70004H26.93181"/>
<path transform="matrix(1,0,0,-1,47.54,51.554)" stroke-width=".3985" stroke-linecap="butt" stroke-miterlimit="10" stroke-linejoin="miter" fill="none" stroke="#000000" d="M21.92125 15.46446V17.87837M16.91068 17.87837H26.93181"/>
<path transform="matrix(1,0,0,-1,47.54,51.554)" stroke-width=".3985" stroke-linecap="butt" stroke-miterlimit="10" stroke-linejoin="miter" fill="none" stroke="#000000" d="M15.65804 12.5554V15.46446H28.18446V12.5554ZM28.18446 15.46446"/>
<path transform="matrix(1,0,0,-1,47.54,51.554)" stroke-width=".3985" stroke-linecap="butt" stroke-miterlimit="10" stroke-linejoin="miter" fill="none" stroke="#000000" d="M15.65804 14.83777H28.18446"/>
<path transform="matrix(1,0,0,-1,47.54,51.554)" stroke-width=".3985" stroke-linecap="butt" stroke-miterlimit="10" stroke-linejoin="miter" fill="none" stroke="#000000" d=""/>
<path transform="matrix(1,0,0,-1,47.54,51.554)" stroke-width=".3985" stroke-linecap="butt" stroke-miterlimit="10" stroke-linejoin="miter" fill="none" stroke="#000000" d="M37.57928 40.45801V39.67581M32.56871 39.67581H42.58984"/>
<path transform="matrix(1,0,0,-1,47.54,51.554)" stroke-width=".3985" stroke-linecap="butt" stroke-miterlimit="10" stroke-linejoin="miter" fill="none" stroke="#000000" d="M37.57928 43.25084V44.95158M32.56871 44.95158H42.58984"/>
<path transform="matrix(1,0,0,-1,47.54,51.554)" stroke-width=".3985" stroke-linecap="butt" stroke-miterlimit="10" stroke-linejoin="miter" fill="none" stroke="#000000" d="M31.31607 40.45801V43.25084H43.8425V40.45801ZM43.8425 43.25084"/>
<path transform="matrix(1,0,0,-1,47.54,51.554)" stroke-width=".3985" stroke-linecap="butt" stroke-miterlimit="10" stroke-linejoin="miter" fill="none" stroke="#000000" d="M31.31607 41.22914H43.8425"/>
<path transform="matrix(1,0,0,-1,47.54,51.554)" stroke-width=".3985" stroke-linecap="butt" stroke-miterlimit="10" stroke-linejoin="miter" fill="none" stroke="#000000" d=""/>
<path transform="matrix(1,0,0,-1,47.54,51.554)" stroke-width=".3985" stroke-linecap="butt" stroke-miterlimit="10" stroke-linejoin="miter" fill="none" stroke="#000000" d="M53.23732 40.62735V37.92291M48.22675 37.92291H58.24788"/>
<path transform="matrix(1,0,0,-1,47.54,51.554)" stroke-width=".3985" stroke-linecap="butt" stroke-miterlimit="10" stroke-linejoin="miter" fill="none" stroke="#000000" d="M53.23732 42.89304V45.28075M48.22675 45.28075H58.24788"/>
<path transform="matrix(1,0,0,-1,47.54,51.554)" stroke-width=".3985" stroke-linecap="butt" stroke-miterlimit="10" stroke-linejoin="miter" fill="none" stroke="#000000" d="M46.9741 40.62735V42.89304H59.50053V40.62735ZM59.50053 42.89304"/>
<path transform="matrix(1,0,0,-1,47.54,51.554)" stroke-width=".3985" stroke-linecap="butt" stroke-miterlimit="10" stroke-linejoin="miter" fill="none" stroke="#000000" d="M46.9741 41.53502H59.50053"/>
<path transform="matrix(1,0,0,-1,47.54,51.554)" stroke-width=".3985" stroke-linecap="butt" stroke-miterlimit="10" stroke-linejoin="miter" fill="none" stroke="#000000" d=""/>
<path transform="matrix(1,0,0,-1,47.54,51.554)" stroke-width=".3985" stroke-linecap="butt" stroke-miterlimit="10" stroke-linejoin="miter" fill="none" stroke="#000000" d="M68.89536 39.52275V38.0734M63.88478 38.0734H73.90591"/>
<path transform="matrix(1,0,0,-1,47.54,51.554)" stroke-width=".3985" stroke-linecap="butt" stroke-miterlimit="10" stroke-linejoin="miter" fill="none" stroke="#000000" d="M68.89536 41.6655V42.46732M63.88478 42.46732H73.90591"/>
<path transform="matrix(1,0,0,-1,47.54,51.554)" stroke-width=".3985" stroke-linecap="butt" stroke-miterlimit="10" stroke-linejoin="miter" fill="none" stroke="#000000" d="M62.63214 39.52275V41.6655H75.15857V39.52275ZM75.15857 41.6655"/>
<path transform="matrix(1,0,0,-1,47.54,51.554)" stroke-width=".3985" stroke-linecap="butt" stroke-miterlimit="10" stroke-linejoin="miter" fill="none" stroke="#000000" d="M62.63214 40.86942H75.15857"/>
<path transform="matrix(1,0,0,-1,47.54,51.554)" stroke-width=".3985" stroke-linecap="butt" stroke-miterlimit="10" stroke-linejoin="miter" fill="none" stroke="#000000" d=""/>
<path transform="matrix(1,0,0,-1,47.54,51.554)" stroke-width=".3985" stroke-linecap="butt" stroke-miterlimit="10" stroke-linejoin="miter" fill="none" stroke="#000000" d="M84.55339 40.68958V39.66739M79.54283 39.66739H89.56395"/>
<path transform="matrix(1,0,0,-1,47.54,51.554)" stroke-width=".3985" stroke-linecap="butt" stroke-miterlimit="10" stroke-linejoin="miter" fill="none" stroke="#000000" d="M84.55339 42.27753V43.13463M79.54283 43.13463H89.56395"/>
<path transform="matrix(1,0,0,-1,47.54,51.554)" stroke-width=".3985" stroke-linecap="butt" stroke-miterlimit="10" stroke-linejoin="miter" fill="none" stroke="#000000" d="M78.29018 40.68958V42.27753H90.8166V40.68958ZM90.8166 42.27753"/>
<path transform="matrix(1,0,0,-1,47.54,51.554)" stroke-width=".3985" stroke-linecap="butt" stroke-miterlimit="10" stroke-linejoin="miter" fill="none" stroke="#000000" d="M78.29018 41.48535H90.8166"/>
<path transform="matrix(1,0,0,-1,47.54,51.554)" stroke-width=".3985" stroke-linecap="butt" stroke-miterlimit="10" stroke-linejoin="miter" fill="none" stroke="#000000" d=""/>
<path transform="matrix(1,0,0,-1,47.54,51.554)" stroke-width=".3985" stroke-linecap="butt" stroke-miterlimit="10" stroke-linejoin="miter" fill="none" stroke="#000000" d="M100.21144 40.10353V37.2544M95.20087 37.2544H105.22198"/>
<path transform="matrix(1,0,0,-1,47.54,51.554)" stroke-width=".3985" stroke-linecap="butt" stroke-miterlimit="10" stroke-linejoin="miter" fill="none" stroke="#000000" d="M100.21144 41.88782V45.56433M95.20087 45.56433H105.22198"/>
<path transform="matrix(1,0,0,-1,47.54,51.554)" stroke-width=".3985" stroke-linecap="butt" stroke-miterlimit="10" stroke-linejoin="miter" fill="none" stroke="#000000" d="M93.94821 40.10353V41.88782H106.47466V40.10353ZM106.47466 41.88782"/>
<path transform="matrix(1,0,0,-1,47.54,51.554)" stroke-width=".3985" stroke-linecap="butt" stroke-miterlimit="10" stroke-linejoin="miter" fill="none" stroke="#000000" d="M93.94821 41.40985H106.47466"/>
<path transform="matrix(1,0,0,-1,47.54,51.554)" stroke-width=".3985" stroke-linecap="butt" stroke-miterlimit="10" stroke-linejoin="miter" fill="none" stroke="#000000" d=""/>
<path transform="matrix(1,0,0,-1,47.54,51.554)" stroke-width=".3985" stroke-linecap="butt" stroke-miterlimit="10" stroke-linejoin="miter" fill="none" stroke="#000000" d="M115.86948 40.11426V38.13715M110.8589 38.13715H120.88004"/>
<path transform="matrix(1,0,0,-1,47.54,51.554)" stroke-width=".3985" stroke-linecap="butt" stroke-miterlimit="10" stroke-linejoin="miter" fill="none" stroke="#000000" d="M115.86948 43.8137V45.82565M110.8589 45.82565H120.88004"/>
<path transform="matrix(1,0,0,-1,47.54,51.554)" stroke-width=".3985" stroke-linecap="butt" stroke-miterlimit="10" stroke-linejoin="miter" fill="none" stroke="#000000" d="M109.60626 40.11426V43.8137H122.13269V40.11426ZM122.13269 43.8137"/>
<path transform="matrix(1,0,0,-1,47.54,51.554)" stroke-width=".3985" stroke-linecap="butt" stroke-miterlimit="10" stroke-linejoin="miter" fill="none" stroke="#000000" d="M109.60626 43.06294H122.13269"/>
<path transform="matrix(1,0,0,-1,47.54,51.554)" stroke-width=".3985" stroke-linecap="butt" stroke-miterlimit="10" stroke-linejoin="miter" fill="none" stroke="#000000" d=""/>
<path transform="matrix(1,0,0,-1,47.54,51.554)" stroke-width=".3985" stroke-linecap="butt" stroke-miterlimit="10" stroke-linejoin="miter" fill="none" stroke="#000000" d="M131.52751 40.54721V38.21733M126.51694 38.21733H136.53807"/>
<path transform="matrix(1,0,0,-1,47.54,51.554)" stroke-width=".3985" stroke-linecap="butt" stroke-miterlimit="10" stroke-linejoin="miter" fill="none" stroke="#000000" d="M131.52751 43.4775V43.93285M126.51694 43.93285H136.53807"/>
<path transform="matrix(1,0,0,-1,47.54,51.554)" stroke-width=".3985" stroke-linecap="butt" stroke-miterlimit="10" stroke-linejoin="miter" fill="none" stroke="#000000" d="M125.2643 40.54721V43.4775H137.79073V40.54721ZM137.79073 43.4775"/>
<path transform="matrix(1,0,0,-1,47.54,51.554)" stroke-width=".3985" stroke-linecap="butt" stroke-miterlimit="10" stroke-linejoin="miter" fill="none" stroke="#000000" d="M125.2643 41.873H137.79073"/>
<path transform="matrix(1,0,0,-1,47.54,51.554)" stroke-width=".3985" stroke-linecap="butt" stroke-miterlimit="10" stroke-linejoin="miter" fill="none" stroke="#000000" d=""/>
<path transform="matrix(1,0,0,-1,47.54,51.554)" stroke-width=".3985" stroke-linecap="butt" stroke-miterlimit="10" stroke-linejoin="miter" fill="none" stroke="#000000" d="M147.18555 40.26907V38.78198M142.17498 38.78198H152.1961"/>
<path transform="matrix(1,0,0,-1,47.54,51.554)" stroke-width=".3985" stroke-linecap="butt" stroke-miterlimit="10" stroke-linejoin="miter" fill="none" stroke="#000000" d="M147.18555 42.4089V45.30206M142.17498 45.30206H152.1961"/>
<path transform="matrix(1,0,0,-1,47.54,51.554)" stroke-width=".3985" stroke-linecap="butt" stroke-miterlimit="10" stroke-linejoin="miter" fill="none" stroke="#000000" d="M140.92234 40.26907V42.4089H153.44876V40.26907ZM153.44876 42.4089"/>
<path transform="matrix(1,0,0,-1,47.54,51.554)" stroke-width=".3985" stroke-linecap="butt" stroke-miterlimit="10" stroke-linejoin="miter" fill="none" stroke="#000000" d="M140.92234 41.41458H153.44876"/>
<path transform="matrix(1,0,0,-1,47.54,51.554)" stroke-width=".3985" stroke-linecap="butt" stroke-miterlimit="10" stroke-linejoin="miter" fill="none" stroke="#000000" d=""/>
<path transform="matrix(1,0,0,-1,47.54,51.554)" stroke-width=".3985" stroke-linecap="butt" stroke-miterlimit="10" stroke-linejoin="miter" fill="none" stroke="#000000" d="M162.84358 41.3239V38.34456M157.83301 38.34456H167.85414"/>
<path transform="matrix(1,0,0,-1,47.54,51.554)" stroke-width=".3985" stroke-linecap="butt" stroke-miterlimit="10" stroke-linejoin="miter" fill="none" stroke="#000000" d="M162.84358 43.13794V45.50652M157.83301 45.50652H167.85414"/>
<path transform="matrix(1,0,0,-1,47.54,51.554)" stroke-width=".3985" stroke-linecap="butt" stroke-miterlimit="10" stroke-linejoin="miter" fill="none" stroke="#000000" d="M156.58037 41.3239V43.13794H169.1068V41.3239ZM169.1068 43.13794"/>
<path transform="matrix(1,0,0,-1,47.54,51.554)" stroke-width=".3985" stroke-linecap="butt" stroke-miterlimit="10" stroke-linejoin="miter" fill="none" stroke="#000000" d="M156.58037 42.84644H169.1068"/>
<path transform="matrix(1,0,0,-1,47.54,51.554)" stroke-width=".3985" stroke-linecap="butt" stroke-miterlimit="10" stroke-linejoin="miter" fill="none" stroke="#000000" d=""/>
<path transform="matrix(1,0,0,-1,47.54,51.554)" stroke-width=".3985" stroke-linecap="butt" stroke-miterlimit="10" stroke-linejoin="miter" fill="none" stroke="#000000" d="M178.50162 38.93991V37.89969M173.49105 37.89969H183.51218"/>
<path transform="matrix(1,0,0,-1,47.54,51.554)" stroke-width=".3985" stroke-linecap="butt" stroke-miterlimit="10" stroke-linejoin="miter" fill="none" stroke="#000000" d="M178.50162 43.34926V45.82777M173.49105 45.82777H183.51218"/>
<path transform="matrix(1,0,0,-1,47.54,51.554)" stroke-width=".3985" stroke-linecap="butt" stroke-miterlimit="10" stroke-linejoin="miter" fill="none" stroke="#000000" d="M172.2384 38.93991V43.34926H184.76483V38.93991ZM184.76483 43.34926"/>
<path transform="matrix(1,0,0,-1,47.54,51.554)" stroke-width=".3985" stroke-linecap="butt" stroke-miterlimit="10" stroke-linejoin="miter" fill="none" stroke="#000000" d="M172.2384 42.05814H184.76483"/>
<path transform="matrix(1,0,0,-1,47.54,51.554)" stroke-width=".3985" stroke-linecap="butt" stroke-miterlimit="10" stroke-linejoin="miter" fill="none" stroke="#000000" d=""/>
</g>
<text xml:space="preserve" transform="matrix(1 0 -0 1 0 82.509998)" font-size="9.9626" font-family="NimbusRomNo9L"><tspan y="-3.435" x="121.386 127.473148 131.89655 135.2141 137.9837 142.4071 147.3884 150.158 154.5814">Variables</tspan></text>
<text xml:space="preserve" transform="matrix(0 -1 1 0 45.449 57.291)" font-size="9.9626" font-family="NimbusRomNo9L"><tspan y="-35.334" x="10.115 13.432546 18.413846 23.95305 28.934351 33.357748 38.339048 42.76244">In&#xfb02;uence</tspan></text>
</svg>
