<svg xmlns="http://www.w3.org/2000/svg" xmlns:xlink="http://www.w3.org/1999/xlink" version="1.1" width="184.739pt" height="71.203pt" viewBox="0 0 184.739 71.203">
<defs>
<clipPath id="clip_0">
<path transform="matrix(1,0,0,-1,41.082,42.395006)" d="M0 0H143.46035V35.8645H0Z"/>
</clipPath>
</defs>
<path transform="matrix(1,0,0,-1,41.082,42.395006)" stroke-width=".3985" stroke-linecap="butt" stroke-dasharray="2.98883,2.98883" stroke-miterlimit="10" stroke-linejoin="miter" fill="none" stroke="#e0e0e0" d="M29.52286 0V35.8645M59.19408 0V35.8645M88.8653 0V35.8645M118.53653 0V35.8645"/>
<path transform="matrix(1,0,0,-1,41.082,42.395006)" stroke-width=".3985" stroke-linecap="butt" stroke-dasharray="2.98883,2.98883" stroke-miterlimit="10" stroke-linejoin="miter" fill="none" stroke="#e0e0e0" d="M0 0H143.46035M0 11.95483H143.46035M0 23.90967H143.46035M0 35.8645H143.46035"/>
<path transform="matrix(1,0,0,-1,41.082,42.395006)" stroke-width=".19925" stroke-linecap="butt" stroke-miterlimit="10" stroke-linejoin="miter" fill="none" stroke="#929292" d="M29.52286 0V4.25182M59.19408 0V4.25182M88.8653 0V4.25182M118.53653 0V4.25182M29.52286 35.8645V31.61266M59.19408 35.8645V31.61266M88.8653 35.8645V31.61266M118.53653 35.8645V31.61266"/>
<path transform="matrix(1,0,0,-1,41.082,42.395006)" stroke-width=".19925" stroke-linecap="butt" stroke-miterlimit="10" stroke-linejoin="miter" fill="none" stroke="#929292" d="M0 0H4.25189M0 11.95483H4.25189M0 23.90967H4.25189M0 35.8645H4.25189M143.46035 0H139.20844M143.46035 11.95483H139.20844M143.46035 23.90967H139.20844M143.46035 35.8645H139.20844"/>
<path transform="matrix(1,0,0,-1,41.082,42.395006)" stroke-width=".3985" stroke-linecap="butt" stroke-miterlimit="10" stroke-linejoin="miter" fill="none" stroke="#000000" d="M0 0V35.8645H143.46035V0H0Z"/>
<text xml:space="preserve" transform="matrix(1 0 -0 1 0 71.203)" font-size="9.96264" font-family="CMR10"><tspan y="-18.868" x="63.132 68.11332 73.09464">200</tspan></text>
<text xml:space="preserve" transform="matrix(1 0 -0 1 0 71.203)" font-size="9.96264" font-family="CMR10"><tspan y="-18.868" x="92.803 97.784328 102.76565">400</tspan></text>
<text xml:space="preserve" transform="matrix(1 0 -0 1 0 71.203)" font-size="9.96264" font-family="CMR10"><tspan y="-18.868" x="122.474 127.45532 132.43665">600</tspan></text>
<text xml:space="preserve" transform="matrix(1 0 -0 1 0 71.203)" font-size="9.96264" font-family="CMR10"><tspan y="-18.868" x="152.145 157.12633 162.10765">800</tspan></text>
<text xml:space="preserve" transform="matrix(1 0 -0 1 0 71.203)" font-size="9.96264" font-family="CMR10"><tspan y="-25.598" x="24.832">1</tspan></text>
<text xml:space="preserve" transform="matrix(1 0 -0 1 0 71.203)" font-size="9.96264" font-family="CMMI10" font-style="italic"><tspan y="-25.598" x="29.813">.</tspan></text>
<text xml:space="preserve" transform="matrix(1 0 -0 1 0 71.203)" font-size="9.96264" font-family="CMR10"><tspan y="-25.598" x="32.581">5</tspan></text>
<text xml:space="preserve" transform="matrix(1 0 -0 1 0 71.203)" font-size="9.96264" font-family="CMR10"><tspan y="-37.552" x="32.581">2</tspan></text>
<text xml:space="preserve" transform="matrix(1 0 -0 1 0 71.203)" font-size="9.96264" font-family="CMR10"><tspan y="-49.507" x="24.832">2</tspan></text>
<text xml:space="preserve" transform="matrix(1 0 -0 1 0 71.203)" font-size="9.96264" font-family="CMMI10" font-style="italic"><tspan y="-49.507" x="29.813">.</tspan></text>
<text xml:space="preserve" transform="matrix(1 0 -0 1 0 71.203)" font-size="9.96264" font-family="CMR10"><tspan y="-49.507" x="32.581">5</tspan></text>
<text xml:space="preserve" transform="matrix(1 0 -0 1 0 71.203)" font-size="9.96264" font-family="CMR10"><tspan y="-61.462" x="32.581">3</tspan></text>
<g clip-path="url(#clip_0)">
<path transform="matrix(1,0,0,-1,41.082,42.395006)" stroke-width=".3985" stroke-linecap="butt" stroke-miterlimit="10" stroke-linejoin="miter" fill="none" stroke="#ef6548" d="M0 35.8645H.14835 .2967L.44505 23.90967 .59341 11.95483 .74178 23.90967 .89012 11.95483 1.03848 35.8645 1.18684 23.90967H1.33519L1.48355 35.8645 1.63191 11.95483 1.78026 35.8645 1.92862 23.90967H2.07698 2.22533 2.37369 2.52205 2.6704L2.81876 35.8645 2.96712 11.95483H3.11546L3.26382 35.8645 3.41219 23.90967H3.56053 3.7089 3.85725L4.0056 0 4.15396 23.90967 4.30232 35.8645 4.45067 23.90967 4.59903 0 4.74739 35.8645H4.89574L5.0441 23.90967 5.19246 11.95483H5.3408L5.48917 23.90967H5.63753L5.78587 11.95483 5.93423 35.8645 6.0826 11.95483H6.23094L6.3793 23.90967H6.52766L6.67601 11.95483 6.82437 35.8645 6.97273 23.90967H7.12108 7.26944L7.4178 11.95483 7.56615 23.90967H7.71451 7.86287L8.01122 35.8645 8.15958 11.95483H8.30794 8.45628 8.60464 8.753 8.90135L9.04971 35.8645H9.19807L9.34642 23.90967 9.49478 0H9.64314L9.79149 35.8645H9.93985L10.08821 23.90967 10.23656 11.95483H10.38492L10.53328 35.8645 10.68163 11.95483 10.82999 0 10.97835 35.8645H11.1267L11.27505 23.90967 11.42342 35.8645H11.57176L11.72012 23.90967H11.86848 12.01683 12.16519 12.31355L12.4619 11.95483H12.61026L12.75862 35.8645 12.90697 11.95483 13.05533 23.90967 13.20369 11.95483H13.35204 13.5004 13.64876 13.7971 13.94547L14.09383 0 14.24217 23.90967 14.39053 11.95483 14.5389 0H14.68724L14.8356 35.8645 14.98396 11.95483H15.13231 15.28067L15.42903 0 15.57738 23.90967H15.72574L15.8741 0 16.02245 23.90967 16.1708 35.8645 16.31917 23.90967H16.46751L16.61588 0 16.76424 23.90967 16.91258 0H17.06094L17.2093 23.90967 17.35765 11.95483H17.50601 17.65437L17.80272 0 17.95108 23.90967 18.09944 11.95483 18.24779 0 18.39615 11.95483 18.54451 35.8645 18.69286 0 18.84122 23.90967 18.98958 0 19.13792 11.95483 19.28629 0 19.43465 23.90967 19.583 11.95483 19.73135 0H19.87971L20.02806 11.95483 20.17642 0 20.32478 23.90967 20.47313 35.8645 20.62149 11.95483 20.76985 0H20.9182L21.06656 11.95483 21.21492 0H21.36327L21.51163 23.90967 21.65999 0 21.80833 11.95483H21.9567L22.10506 23.90967 22.2534 11.95483 22.40176 0H22.55013 22.69847 22.84683L22.9952 23.90967 23.14354 0 23.2919 23.90967 23.44026 11.95483H23.58861L23.73697 0 23.88533 11.95483 24.03368 23.90967 24.18204 0 24.3304 23.90967 24.47874 35.8645 24.6271 11.95483H24.77547 24.92381 25.07217 25.22054 25.36888L25.51724 0 25.6656 23.90967 25.81395 11.95483 25.96231 35.8645H26.11067L26.25902 11.95483H26.40738 26.55574L26.70409 0H26.85245L27.00081 11.95483H27.14915 27.29752L27.44588 0 27.59422 11.95483H27.74258L27.89095 0H28.03929L28.18765 11.95483H28.33601 28.48436 28.63272L28.78108 23.90967 28.92943 0 29.07779 11.95483H29.22615L29.3745 0H29.52286 29.67122 29.81956L29.96793 11.95483 30.11629 0 30.26463 35.8645 30.413 11.95483 30.56136 35.8645 30.7097 23.90967H30.85806L31.00642 0H31.15477 31.30313L31.45149 11.95483 31.59984 0 31.7482 35.8645 31.89656 11.95483 32.0449 0 32.19327 23.90967H32.34163 32.48997L32.63834 0 32.7867 11.95483 32.93504 0 33.0834 11.95483H33.23177L33.38011 0H33.52847 33.67683L33.82518 11.95483 33.97354 0H34.1219 34.27025L34.41861 11.95483H34.56697L34.71532 0H34.86368L35.01204 23.90967 35.16039 11.95483H35.30875L35.4571 0H35.60545 35.75381 35.90218 36.05052 36.19888 36.34724L36.49559 11.95483 36.64395 0H36.79231 36.94066 37.08902 37.23738 37.38573L37.53409 23.90967H37.68245L37.8308 11.95483 37.97916 0H38.12752 38.27586L38.42422 11.95483 38.57259 0 38.72093 11.95483 38.8693 0H39.01765 39.166 39.31436 39.46272 39.61107 39.75943L39.90779 23.90967 40.05614 0 40.2045 23.90967 40.35286 11.95483 40.5012 0H40.64957 40.79793L40.94627 11.95483 41.09464 0H41.243 41.39134 41.5397 41.68806 41.83641 41.98477 42.13313 42.28148 42.42984 42.5782 42.72655 42.87491L43.02327 11.95483 43.17162 0H43.31998 43.46834 43.61668 43.76505 43.9134L44.06175 11.95483 44.21011 0H44.35847L44.50682 35.8645 44.65518 0H44.80354 44.95189 45.10025 45.24861L45.39696 35.8645H45.54532L45.69368 11.95483 45.84203 0H45.99039 46.13875L46.2871 11.95483 46.43546 0H46.58382 46.73216 46.88052 47.02888L47.17723 23.90967 47.32559 0H47.47395L47.6223 11.95483 47.77066 0H47.91902 48.06737 48.21573 48.36409 48.51244 48.6608 48.80916 48.9575 49.10587 49.25423 49.40257L49.55093 11.95483 49.6993 0H49.84764L49.996 11.95483 50.14436 0H50.29271 50.44107 50.58943L50.73778 35.8645 50.88614 0H51.0345 51.18285 51.3312 51.47957L51.62791 11.95483 51.77628 0H51.92464L52.07298 35.8645 52.22134 0H52.3697 52.51805 52.66641L52.81477 11.95483 52.96312 0 53.11148 11.95483H53.25984L53.40819 0H53.55655 53.70491L53.85326 11.95483H54.00162L54.14998 0H54.29832 54.44669 54.59505 54.7434 54.89175 55.04012L55.18846 23.90967 55.33682 0H55.48518 55.63353 55.78189 55.93025 56.0786 56.22696 56.37532 56.52367 56.67203 56.82039 56.96873 57.1171 57.26546 57.4138 57.56216L57.71053 11.95483 57.85887 0 58.00723 35.8645 58.1556 11.95483 58.30394 0H58.4523 58.60066 58.74901L58.89737 11.95483 59.04573 0 59.19408 11.95483 59.34244 0H59.49078 59.63914 59.7875 59.93585 60.08421 60.23257 60.38092 60.52928 60.67764 60.82599 60.97435 61.12271 61.27106 61.41942 61.56778 61.71613 61.86449L62.01285 11.95483 62.1612 0 62.30956 35.8645 62.45792 0H62.60626 62.75462 62.90298 63.05133 63.19969 63.34805 63.4964 63.64476 63.79312 63.94147 64.08983 64.23819 64.38654 64.5349 64.68326 64.8316 64.97997 65.12833 65.27667 65.42503 65.5734L65.72174 11.95483 65.8701 0H66.01846 66.16681 66.31517 66.46353 66.61188 66.76024 66.9086 67.05695 67.2053L67.35367 11.95483H67.50201L67.65038 0H67.79874 67.94708 68.09544 68.2438 68.39215L68.54051 11.95483 68.68887 0 68.83722 23.90967 68.98558 0H69.13394 69.28229 69.43065 69.57901L69.72736 11.95483 69.87572 0H70.02408 70.17242 70.32079L70.46915 23.90967 70.6175 0H70.76585 70.91422 71.06256 71.21092L71.35928 11.95483 71.50763 0H71.65599 71.80435L71.9527 11.95483H72.10106L72.24942 35.8645 72.39777 0H72.54613 72.69449L72.84283 11.95483 72.9912 0H73.13956 73.2879 73.43626 73.58463 73.73297 73.88133L74.0297 23.90967 74.17804 0H74.3264L74.47476 23.90967 74.62311 0 74.77147 11.95483 74.91983 0H75.06818 75.21654 75.3649 75.51324 75.6616 75.80997 75.95831L76.10667 23.90967 76.25504 0H76.40338L76.55174 23.90967 76.7001 11.95483 76.84845 0H76.99681 77.14517 77.29352 77.44188 77.59024 77.73859 77.88695 78.03531 78.18365 78.33202 78.48038 78.62872 78.77708 78.92545 79.07379 79.22215 79.37051 79.51886 79.66722 79.81558 79.96393 80.11229 80.26065 80.409 80.55736 80.70572L80.85406 23.90967 81.00243 11.95483H81.15079L81.29913 0H81.4475 81.59586 81.7442 81.89256L82.04092 11.95483 82.18927 0H82.33763 82.486 82.63434 82.7827 82.93106 83.0794L83.22777 11.95483 83.37613 0H83.52448 83.67284 83.8212 83.96954 84.1179L84.26627 11.95483 84.41461 0H84.56297L84.71133 11.95483 84.85968 0H85.00804 85.1564L85.30475 23.90967 85.45311 0 85.60147 35.8645 85.74982 0H85.89818 86.04654 86.19489 86.34325L86.49161 11.95483 86.63995 0H86.78831L86.93668 11.95483 87.08502 0H87.23338 87.38174 87.53009 87.67845 87.82681 87.97516 88.12352L88.27188 11.95483 88.42023 0 88.56859 11.95483 88.71695 0H88.8653 89.01366 89.16202 89.31036 89.45872 89.60709 89.75543 89.9038 90.05215 90.2005 90.34886 90.49722 90.64557 90.79393 90.94229 91.09064 91.239 91.38736 91.5357 91.68407 91.83243 91.98077 92.12914 92.2775 92.42584 92.5742 92.72256 92.87091L93.01927 23.90967 93.16763 11.95483 93.31598 0H93.46434 93.6127 93.76105 93.90941 94.05777 94.20612 94.35448 94.50284 94.65118 94.79955 94.9479 95.09625 95.24461 95.39297 95.54132 95.68968 95.83804 95.98639 96.13475 96.28311 96.43146 96.57982 96.72818 96.87653 97.02489 97.17325 97.3216 97.46996 97.61832 97.76666 97.91502 98.06339 98.21173 98.36009 98.50845L98.6568 11.95483 98.80516 0H98.95352 99.10187 99.25023 99.39859 99.54694 99.6953 99.84366 99.992 100.14037 100.28873 100.43707 100.58543 100.7338 100.88214 101.0305 101.17886 101.32721 101.47557L101.62393 11.95483 101.77228 0H101.92064 102.069 102.21735 102.3657 102.51407 102.66241 102.81078 102.95914 103.10748 103.25584 103.4042 103.55255 103.70091 103.84927 103.99762 104.14598 104.29434 104.44269 104.59105 104.73941 104.88776 105.03612 105.18448 105.33282L105.48119 11.95483 105.62955 0H105.7779 105.92625 106.07462L106.22296 11.95483 106.37132 0H106.51968 106.66803 106.81639 106.96475 107.1131 107.26146 107.40982L107.55817 11.95483 107.70653 0H107.85489 108.00323 108.1516 108.29996 108.4483 108.59666 108.74503 108.89337 109.04173 109.1901 109.33844 109.4868 109.63516 109.78351 109.93187 110.08023 110.22858 110.37694 110.5253 110.67365 110.822 110.97037 111.11871 111.26707 111.41544 111.56378 111.71214 111.8605 112.00885 112.15721 112.30557 112.45392 112.60228 112.75064 112.89899 113.04735 113.19571 113.34406 113.49242 113.64078 113.78912 113.93748 114.08585 114.23419 114.38255 114.53091 114.67926 114.82762 114.97598 115.12433 115.27269 115.42105 115.5694 115.71776 115.86612 116.01447 116.16283 116.31119 116.45953 116.6079 116.75626 116.9046 117.05296 117.20132 117.34967L117.49803 11.95483 117.6464 0 117.79474 11.95483 117.9431 0H118.09146 118.2398 118.38817 118.53653 118.68488 118.83324 118.98158 119.12994 119.2783 119.42665 119.57501 119.72337 119.87172 120.02008 120.16844 120.31679 120.46515 120.61351 120.76186 120.91022 121.05858 121.20692 121.35529 121.50365 121.652 121.80035L121.94872 11.95483 122.09706 0H122.24542 122.39378 122.54213 122.69049 122.83885 122.9872 123.13556 123.28392 123.43227 123.58063 123.72899 123.87733 124.0257 124.17406L124.3224 11.95483 124.47076 0H124.61913 124.76747 124.91583 125.0642 125.21254 125.3609 125.50926 125.65761 125.80597 125.95433 126.10268 126.25104 126.3994 126.54774 126.6961 126.84447 126.99281 127.14117 127.28954 127.43788 127.58624 127.7346 127.88295 128.03131 128.17967 128.32802 128.47638 128.62474 128.77309 128.92145 129.06981 129.21816 129.36652 129.51488 129.66323 129.81159 129.95995 130.10829 130.25666 130.40502 130.55336 130.70172 130.85009 130.99843 131.14679 131.29515 131.4435 131.59186 131.74022 131.88857 132.03693 132.18529 132.33364 132.482 132.63036 132.7787 132.92707 133.07543 133.22377 133.37213 133.5205 133.66884 133.8172 133.96556 134.1139 134.26227 134.41063 134.55898 134.70734 134.8557 135.00405 135.1524 135.30077 135.44911 135.59748 135.74584 135.89418 136.04254 136.1909 136.33925 136.48761 136.63597 136.78432 136.93268 137.08104 137.22939 137.37775 137.52611 137.67446 137.82282 137.97118 138.11952 138.26789 138.41625 138.56459 138.71295 138.86132 139.00966 139.15802 139.30638 139.45473 139.60309 139.75145 139.8998 140.04816 140.19652 140.34487 140.49323 140.64159 140.78993 140.9383 141.08666 141.235 141.38336 141.53173 141.68007 141.82843 141.97679 142.12514 142.2735 142.42186 142.5702 142.71857 142.86693 143.01528 143.16364 143.312 143.46035"/>
<path transform="matrix(1,0,0,-1,41.082,42.395006)" stroke-width="1.19553" stroke-linecap="butt" stroke-miterlimit="10" stroke-linejoin="miter" fill="none" stroke="#000000" d="M0 35.8645H.14835L.2967 28.6916 .44505 25.61748 .59341 26.56628 .74178 27.17006 .89012 26.66847 1.03848 26.30063 1.18684 26.01933 1.33519 25.79726 1.48355 25.61748 1.63191 25.46898 1.78026 25.34424 1.92862 25.23796 2.07698 24.3219 2.22533 24.68094 2.37369 24.27193 2.52205 24.59279 2.6704 23.90967H2.81876 2.96712L3.11546 23.35362 3.26382 23.37833 3.41219 23.40094 3.56053 23.4217 3.7089 23.20644 3.85725 23.23296 4.0056 23.47493 4.15396 23.07072 4.30232 22.69391 4.45067 22.34181 4.59903 22.7711 4.74739 22.4383 4.89574 22.30379 5.0441 22.52359 5.19246 22.22588 5.3408 22.272 5.48917 22.15628 5.63753 22.35709 5.78587 22.69904 5.93423 22.72893 6.0826 22.75739 6.23094 22.64386 6.3793 22.67296 6.52766 22.56642 6.67601 22.3332 6.82437 22.11 6.97273 21.89621 7.12108 21.69124 7.26944 21.37378 7.4178 21.30563 7.56615 21.12407 7.71451 20.83556 7.86287 20.89302 8.01122 20.72902 8.15958 20.89401 8.30794 20.73581 8.45628 20.58308 8.60464 20.43561 8.753 20.29306 8.90135 20.05644 9.04971 20.02191 9.19807 19.7972 9.34642 19.76782 9.49478 19.6467 9.64314 19.438 9.79149 19.41534 9.93985 19.12773 10.08821 18.93575 10.23656 19.0933 10.38492 18.90729 10.53328 18.72644 10.68163 18.46814 10.82999 18.37953 10.97835 18.29329 11.1267 18.2885 11.27505 18.04944 11.42342 17.81654 11.57176 17.74187 11.72012 17.74428 11.86848 17.5981 12.01683 17.6022 12.16519 17.53374 12.31355 17.6101 12.4619 17.54318 12.61026 17.47781 12.75862 17.34486 12.90697 17.35158 13.05533 17.56076 13.20369 17.49812 13.35204 17.37082 13.5004 17.2463 13.64876 17.1891 13.7971 17.06918 13.94547 16.95181 14.09383 16.8369 14.24217 16.7863 14.39053 16.79805 14.5389 16.6882 14.68724 16.58057 14.8356 16.41557 14.98396 16.31274 15.13231 16.32854 15.28067 16.4018 15.42903 16.47363 15.57738 16.31749 15.72574 16.2204 15.8741 16.23633 16.02245 16.14177 16.1708 16.2127 16.31917 16.17418 16.46751 16.08273 16.61588 16.04604 16.76424 15.90465 16.91258 15.81795 17.06094 15.681 17.2093 15.5977 17.35765 15.51582 17.50601 15.48578 17.65437 15.45624 17.80272 15.32796 17.95108 15.20181 18.09944 15.07771 18.24779 15.00403 18.39615 14.88351 18.54451 14.76492 18.69286 14.64821 18.84122 14.72084 18.98958 14.6528 19.13792 14.53966 19.28629 14.47404 19.43465 14.40942 19.583 14.30067 19.73135 14.19354 19.87971 14.08803 20.02806 14.07228 20.17642 14.10056 20.32478 13.998 20.47313 13.9401 20.62149 13.84016 20.76985 13.74167 20.9182 13.64455 21.06656 13.5488 21.21492 13.45438 21.36327 13.36127 21.51163 13.31053 21.65999 13.21967 21.80833 13.13005 21.9567 13.04161 22.10506 12.99437 22.2534 13.02718 22.40176 12.9412 22.55013 12.85634 22.69847 12.8894 22.84683 12.96072 22.9952 12.87738 23.14354 12.83328 23.2919 12.7518 23.44026 12.67136 23.58861 12.66685 23.73697 12.58795 23.88533 12.54701 24.03368 12.46979 24.18204 12.39352 24.3304 12.31819 24.47874 12.24376 24.6271 12.17023 24.77547 12.13326 24.92381 12.06125 25.07217 12.02534 25.22054 11.95483 25.36888 11.98967 25.51724 11.92017 25.6656 11.85147 25.81395 11.8178 25.96231 11.75047 26.11067 11.78549 26.25902 11.71909 26.40738 11.68692 26.55574 11.65512 26.70409 11.62367 26.85245 11.55962 27.00081 11.56178 27.14915 11.49876 27.29752 11.43646 27.44588 11.3748 27.59422 11.37791 27.74258 11.31723 27.89095 11.25719 28.03929 11.19778 28.18765 11.13899 28.33601 11.08084 28.48436 11.02328 28.63272 10.96631 28.78108 10.90993 28.92943 10.8847 29.07779 10.95097 29.22615 10.89554 29.3745 10.84064 29.52286 10.81625 29.67122 10.79213 29.81956 10.73856 29.96793 10.68553 30.11629 10.63303 30.26463 10.58104 30.413 10.52956 30.56136 10.47856 30.7097 10.42807 30.85806 10.37805 31.00642 10.35704 31.15477 10.39302 31.30313 10.34389 31.45149 10.29521 31.59984 10.247 31.7482 10.19922 31.89656 10.15189 32.0449 10.105 32.19327 10.05853 32.34163 10.0125 32.48997 9.96687 32.63834 9.92169 32.7867 9.87689 32.93504 9.85938 33.0834 9.81526 33.23177 9.77153 33.38011 9.7282 33.52847 9.68524 33.67683 9.66895 33.82518 9.65279 33.97354 9.61073 34.1219 9.56905 34.27025 9.55353 34.41861 9.56386 34.56697 9.52289 34.71532 9.48228 34.86368 9.4674 35.01204 9.42737 35.16039 9.38766 35.30875 9.39845 35.4571 9.35919 35.60545 9.32028 35.75381 9.30644 35.90218 9.23218 36.05052 9.15794 36.19888 9.10844 36.34724 9.08368 36.49559 9.1332 36.64395 9.08368 36.79231 9.05893 36.94066 8.98468 37.08902 8.95992 37.23738 8.91042 37.38573 8.83617 37.53409 8.8114 37.68245 8.73717 37.8308 8.68767 37.97916 8.63815 38.12752 8.58865H38.27586L38.42422 8.53915 38.57259 8.48964 38.72093 8.46489 38.8693 8.44014H39.01765L39.166 8.3659 39.31436 8.31639 39.46272 8.26689 39.61107 8.21739 39.75943 8.16788H39.90779L40.05614 8.11838 40.2045 8.04413H40.35286 40.5012L40.64957 7.96988 40.79793 7.94513 40.94627 7.92038 41.09464 7.89563 41.243 7.87086 41.39134 7.82137 41.5397 7.77187 41.68806 7.74712 41.83641 7.67285 41.98477 7.6481 42.13313 7.62335 42.28148 7.57387 42.42984 7.52435 42.5782 7.4996 42.72655 7.42535 42.87491 7.37584 43.02327 7.32634 43.17162 7.27684 43.31998 7.25209 43.46834 7.20259 43.61668 7.15309 43.76505 7.10359 43.9134 7.02933 44.06175 7.00458 44.21011 6.97983 44.35847 6.95508 44.50682 6.93033 44.65518 6.90556 44.80354 6.88081 44.95189 6.80656 45.10025 6.78183 45.24861 6.75706 45.39696 6.78183H45.54532L45.69368 6.70757 45.84203 6.63332 45.99039 6.5838 46.13875 6.55905H46.2871L46.43546 6.4848 46.58382 6.46005H46.73216L46.88052 6.3858 47.02888 6.31155 47.17723 6.26204 47.32559 6.18779 47.47395 6.13829 47.6223 6.08878 47.77066 6.03928 47.91902 5.98979 48.06737 5.94028 48.21573 5.89078 48.36409 5.86603H48.51244L48.6608 5.79176 48.80916 5.76701 48.9575 5.74226 49.10587 5.71751 49.25423 5.69276 49.40257 5.66801 49.55093 5.69276 49.6993 5.66801 49.84764 5.71751H49.996L50.14436 5.66801 50.29271 5.64325H50.44107 50.58943L50.73778 5.59377 50.88614 5.56902 51.0345 5.54427H51.18285 51.3312L51.47957 5.49475 51.62791 5.44525H51.77628L51.92464 5.39575 52.07298 5.32149 52.22134 5.27199 52.3697 5.22249 52.51805 5.24724 52.66641 5.19775 52.81477 5.22249H52.96312L53.11148 5.17299 53.25984 5.14824 53.40819 5.12349 53.55655 5.09874H53.70491L53.85326 5.04924 54.00162 5.02448H54.14998L54.29832 4.99973 54.44669 4.92548H54.59505L54.7434 4.87596H54.89175L55.04012 4.85121H55.18846L55.33682 4.80173 55.48518 4.77698H55.63353 55.78189L55.93025 4.75223H56.0786L56.22696 4.70271 56.37532 4.62846 56.52367 4.60371H56.67203 56.82039L56.96873 4.57896H57.1171L57.26546 4.62846 57.4138 4.60371H57.56216L57.71053 4.57896 57.85887 4.55421 58.00723 4.5047 58.1556 4.47995H58.30394 58.4523 58.60066 58.74901L58.89737 4.43045H59.04573L59.19408 4.38095 59.34244 4.3562 59.49078 4.33145H59.63914L59.7875 4.3067 59.93585 4.2572H60.08421L60.23257 4.20769 60.38092 4.13344 60.52928 4.10869 60.67764 4.08394 60.82599 4.05917 60.97435 4.03442 61.12271 4.00967 61.27106 3.98494H61.41942L61.56778 3.93542 61.71613 3.91068 61.86449 3.83643 62.01285 3.76216 62.1612 3.73741 62.30956 3.71266 62.45792 3.68791H62.60626 62.75462 62.90298L63.05133 3.66316 63.19969 3.63841H63.34805L63.4964 3.61366 63.64476 3.58891H63.79312 63.94147L64.08983 3.56416 64.23819 3.53941 64.38654 3.51466 64.5349 3.48991 64.68326 3.4404H64.8316L64.97997 3.41565 65.12833 3.3909H65.27667 65.42503 65.5734 65.72174 65.8701 66.01846L66.16681 3.31665 66.31517 3.29189 66.46353 3.21764 66.61188 3.16815 66.76024 3.11864H66.9086 67.05695 67.2053L67.35367 3.09389H67.50201L67.65038 3.01964 67.79874 2.99489H67.94708L68.09544 2.94537 68.2438 2.89587 68.39215 2.84636H68.54051L68.68887 2.82161H68.83722L68.98558 2.79688 69.13394 2.77213H69.28229 69.43065 69.57901 69.72736 69.87572 70.02408 70.17242L70.32079 2.74738H70.46915 70.6175 70.76585L70.91422 2.69788 71.06256 2.67313 71.21092 2.64836H71.35928 71.50763 71.65599L71.80435 2.67313H71.9527 72.10106 72.24942L72.39777 2.64836H72.54613 72.69449 72.84283 72.9912 73.13956 73.2879L73.43626 2.59886 73.58463 2.54936 73.73297 2.52461H73.88133 74.0297 74.17804L74.3264 2.49985H74.47476L74.62311 2.4751H74.77147 74.91983 75.06818 75.21654 75.3649 75.51324 75.6616L75.80997 2.4256H75.95831L76.10667 2.3761 76.25504 2.35135H76.40338 76.55174 76.7001L76.84845 2.3266H76.99681 77.14517 77.29352 77.44188 77.59024 77.73859 77.88695 78.03531 78.18365 78.33202 78.48038 78.62872 78.77708L78.92545 2.30185H79.07379 79.22215 79.37051 79.51886 79.66722 79.81558L79.96393 2.2771H80.11229 80.26065L80.409 2.20285H80.55736 80.70572 80.85406 81.00243 81.15079L81.29913 2.12859 81.4475 2.05434 81.59586 2.02957 81.7442 2.05434H81.89256L82.04092 2.07909 82.18927 2.05434H82.33763 82.486 82.63434 82.7827 82.93106L83.0794 2.00482H83.22777 83.37613L83.52448 1.98009H83.67284 83.8212 83.96954 84.1179 84.26627 84.41461 84.56297 84.71133 84.85968 85.00804 85.1564 85.30475L85.45311 1.95534H85.60147 85.74982L85.89818 1.93059H86.04654L86.19489 1.95534H86.34325 86.49161L86.63995 1.88107H86.78831 86.93668 87.08502 87.23338 87.38174L87.53009 1.85632H87.67845 87.82681L87.97516 1.78207H88.12352 88.27188 88.42023L88.56859 1.80682 88.71695 1.78207H88.8653L89.01366 1.75732 89.16202 1.73257H89.31036 89.45872 89.60709L89.75543 1.70781 89.9038 1.68306H90.05215 90.2005 90.34886 90.49722 90.64557 90.79393 90.94229L91.09064 1.63356H91.239 91.38736 91.5357 91.68407 91.83243 91.98077 92.12914 92.2775 92.42584 92.5742 92.72256 92.87091 93.01927 93.16763 93.31598 93.46434L93.6127 1.60881H93.76105L93.90941 1.53456 94.05777 1.50981H94.20612 94.35448 94.50284 94.65118L94.79955 1.48506H94.9479L95.09625 1.46031H95.24461 95.39297 95.54132 95.68968 95.83804 95.98639 96.13475 96.28311 96.43146 96.57982 96.72818 96.87653 97.02489 97.17325 97.3216 97.46996 97.61832 97.76666L97.91502 1.43556H98.06339L98.21173 1.3613H98.36009 98.50845 98.6568 98.80516 98.95352 99.10187 99.25023 99.39859 99.54694 99.6953 99.84366 99.992 100.14037 100.28873 100.43707 100.58543 100.7338 100.88214 101.0305 101.17886 101.32721 101.47557L101.62393 1.33655H101.77228 101.92064 102.069 102.21735 102.3657 102.51407 102.66241 102.81078 102.95914 103.10748L103.25584 1.3118 103.4042 1.28705H103.55255 103.70091 103.84927 103.99762 104.14598 104.29434L104.44269 1.2623H104.59105L104.73941 1.21278H104.88776 105.03612 105.18448 105.33282 105.48119L105.62955 1.18805H105.7779 105.92625 106.07462 106.22296L106.37132 1.13855H106.51968 106.66803 106.81639 106.96475 107.1131L107.26146 1.1138H107.40982 107.55817 107.70653L107.85489 1.06871 108.00323 .9983 108.1516 1.00249 108.29996 .98154 108.4483 .98569 108.59666 .98987 108.74503 .9941 108.89337 .94716 109.04173 .89981 109.1901 .87787 109.33844 .8817 109.4868 .88553 109.63516 .8894 109.78351 .89333 109.93187 .84448 110.08023 .79521 110.22858 .77213 110.37694 .77559 110.5253 .77907 110.67365 .78258 110.822 .78613 110.97037 .78972 111.11871 .79332 111.26707 .79697 111.41544 .80064 111.56378 .80437 111.71214 .80812 111.8605 .8119 112.00885 .81573 112.15721 .8196 112.30557 .7383 112.45392 .71329 112.60228 .7167 112.75064 .72015 112.89899 .69469 113.04735 .69809 113.19571 .70149 113.34406 .70494 113.49242 .6789 113.64078 .68227 113.78912 .68568 113.93748 .65915 114.08585 .66246 114.23419 .63556 114.38255 .6388 114.53091 .5809 114.67926 .4917 114.82762 .49423 114.97598 .49681 115.12433 .46819 115.27269 .43927 115.42105 .44159 115.5694 .44394 115.71776 .44629 115.86612 .4487 116.01447 .41888 116.16283 .38876 116.31119 .39088 116.45953 .39302 116.6079 .39519 116.75626 .39737 116.9046 .3996 117.05296 .40182 117.20132 .4041 117.34967 .40639 117.49803 .40869 117.6464 .41104 117.79474 .4134 117.9431 .41582 118.09146 .41823 118.2398 .42067 118.38817 .31737 118.53653 .31924 118.68488 .32117 118.83324 .32309 118.98158 .32504 119.12994 .32701 119.2783 .32901 119.42665 .33104 119.57501 .3331 119.72337 .33516 119.87172 .33727 120.02008 .33939 120.16844 .34155 120.31679 .34373 120.46515 .34595 120.61351 .34818 120.76186 .35046 120.91022 .35275 121.05858 .35509 121.20692 .31772 121.35529 .31984 121.50365 .322 121.652 .32419 121.80035 .3264 121.94872 .32864 122.09706 .3309 122.24542 .33322 122.39378 .33556 122.54213 .33794 122.69049 .29779 122.83885 .29993 122.9872 .3021 123.13556 .30429 123.28392 .30652 123.43227 .30879 123.58063 .31107 123.72899 .31342 123.87733 .31577 124.0257 .31818 124.17406 .32062 124.3224 .32309 124.47076 .3256 124.61913 .28128 124.76747 .2835 124.91583 .23813 125.0642 .24005 125.21254 .24199 125.3609 .24396 125.50926 .24597 125.65761 .19841 125.80597 .20006 125.95433 .20175 126.10268 .20348 126.25104 .20522 126.3994 .207 126.54774 .2088 126.6961 .21065 126.84447 .21251 126.99281 .21442 127.14117 .21637 127.28954 .21834 127.43788 .22035 127.58624 .2224 127.7346 .2245 127.88295 .22661 128.03131 .22878 128.17967 .231 128.32802 .23325 128.47638 .23555 128.62474 .23788 128.77309 .24028 128.92145 .24272 129.06981 .24521 129.21816 .24776 129.36652 .25035 129.51488 .253 129.66323 .2557 129.81159 .25847 129.95995 .2613 130.10829 .26418 130.25666 .26714 130.40502 .27014 130.55336 .20493 130.70172 .1382 130.85009 .1398 130.99843 .14146 131.14679 .14314 131.29515 .1449 131.4435 .14668 131.59186 .1485 131.74022 .15036 131.88857 .15227 132.03693 .15425 132.18529 .15625 132.33364 .15833 132.482 .16045 132.63036 .16264 132.7787 .08243 132.92707 .08359 133.07543 .08478 133.22377 .08598 133.37213 .08725 133.5205 .08855 133.66884 .08986 133.8172 .09125 133.96556 0H134.1139 134.26227 134.41063 134.55898 134.70734 134.8557 135.00405 135.1524 135.30077 135.44911 135.59748 135.74584 135.89418 136.04254 136.1909 136.33925 136.48761 136.63597 136.78432 136.93268 137.08104 137.22939 137.37775 137.52611 137.67446 137.82282 137.97118 138.11952 138.26789 138.41625 138.56459 138.71295 138.86132 139.00966 139.15802 139.30638 139.45473 139.60309 139.75145 139.8998 140.04816 140.19652 140.34487 140.49323 140.64159 140.78993 140.9383 141.08666 141.235 141.38336 141.53173 141.68007 141.82843 141.97679 142.12514 142.2735 142.42186 142.5702 142.71857 142.86693 143.01528 143.16364 143.312 143.46035"/>
</g>
<text xml:space="preserve" transform="matrix(1 0 -0 1 .0000076293949 71.203)" font-size="9.96264" font-family="LMRoman10"><tspan y="-3.43" x="93.658 97.583278 102.5646 105.33421 110.87344 114.74891 117.518527 122.49985 128.03908">solutions</tspan></text>
<text xml:space="preserve" transform="matrix(0 -1 1 0 49.268 37.155004)" font-size="9.96264" font-family="CMMI10" font-style="italic"><tspan y="-41.658" x="7.61">x</tspan></text>
<text xml:space="preserve" transform="matrix(0 -1 1 0 49.268 37.155004)" font-size="6.97385" font-family="CMR7"><tspan y="-40.164" x="13.304">3</tspan></text>
</svg>
