<svg xmlns="http://www.w3.org/2000/svg" xmlns:xlink="http://www.w3.org/1999/xlink" version="1.1" width="184.739pt" height="65.225pt" viewBox="0 0 184.739 65.225">
<defs>
<clipPath id="clip_0">
<path transform="matrix(1,0,0,-1,41.082,36.417)" d="M0 0H143.46035V35.8645H0Z"/>
</clipPath>
</defs>
<path transform="matrix(1,0,0,-1,41.082,36.417)" stroke-width=".3985" stroke-linecap="butt" stroke-dasharray="2.98883,2.98883" stroke-miterlimit="10" stroke-linejoin="miter" fill="none" stroke="#e0e0e0" d="M29.52286 0V35.8645M59.19408 0V35.8645M88.8653 0V35.8645M118.53653 0V35.8645"/>
<path transform="matrix(1,0,0,-1,41.082,36.417)" stroke-width=".3985" stroke-linecap="butt" stroke-dasharray="2.98883,2.98883" stroke-miterlimit="10" stroke-linejoin="miter" fill="none" stroke="#e0e0e0" d="M0 5.97742H143.46035M0 17.93225H143.46035M0 29.88708H143.46035"/>
<path transform="matrix(1,0,0,-1,41.082,36.417)" stroke-width=".19925" stroke-linecap="butt" stroke-miterlimit="10" stroke-linejoin="miter" fill="none" stroke="#929292" d="M29.52286 0V4.25166M59.19408 0V4.25166M88.8653 0V4.25166M118.53653 0V4.25166M29.52286 35.8645V31.61281M59.19408 35.8645V31.61281M88.8653 35.8645V31.61281M118.53653 35.8645V31.61281"/>
<path transform="matrix(1,0,0,-1,41.082,36.417)" stroke-width=".19925" stroke-linecap="butt" stroke-miterlimit="10" stroke-linejoin="miter" fill="none" stroke="#929292" d="M0 5.97742H4.25189M0 17.93225H4.25189M0 29.88708H4.25189M143.46035 5.97742H139.20844M143.46035 17.93225H139.20844M143.46035 29.88708H139.20844"/>
<path transform="matrix(1,0,0,-1,41.082,36.417)" stroke-width=".3985" stroke-linecap="butt" stroke-miterlimit="10" stroke-linejoin="miter" fill="none" stroke="#000000" d="M0 0V35.8645H143.46035V0H0Z"/>
<text xml:space="preserve" transform="matrix(1 0 -0 1 0 65.225)" font-size="9.96264" font-family="CMR10"><tspan y="-18.868" x="63.132 68.11332 73.09464">200</tspan></text>
<text xml:space="preserve" transform="matrix(1 0 -0 1 0 65.225)" font-size="9.96264" font-family="CMR10"><tspan y="-18.868" x="92.803 97.784328 102.76565">400</tspan></text>
<text xml:space="preserve" transform="matrix(1 0 -0 1 0 65.225)" font-size="9.96264" font-family="CMR10"><tspan y="-18.868" x="122.474 127.45532 132.43665">600</tspan></text>
<text xml:space="preserve" transform="matrix(1 0 -0 1 0 65.225)" font-size="9.96264" font-family="CMR10"><tspan y="-18.868" x="152.145 157.12633 162.10765">800</tspan></text>
<text xml:space="preserve" transform="matrix(1 0 -0 1 0 65.225009)" font-size="9.96264" font-family="CMR10"><tspan y="-31.575" x="32.581">4</tspan></text>
<text xml:space="preserve" transform="matrix(1 0 -0 1 0 65.225)" font-size="9.96264" font-family="CMR10"><tspan y="-43.53" x="32.581">6</tspan></text>
<text xml:space="preserve" transform="matrix(1 0 -0 1 0 65.225)" font-size="9.96264" font-family="CMR10"><tspan y="-55.484" x="32.581">8</tspan></text>
<g clip-path="url(#clip_0)">
<path transform="matrix(1,0,0,-1,41.082,36.417)" stroke-width=".3985" stroke-linecap="butt" stroke-miterlimit="10" stroke-linejoin="miter" fill="none" stroke="#ef6548" d="M0 35.8645H.14835 .2967 .44505 .59341 .74178 .89012 1.03848 1.18684 1.33519 1.48355 1.63191 1.78026 1.92862 2.07698 2.22533 2.37369 2.52205 2.6704 2.81876 2.96712 3.11546 3.26382 3.41219 3.56053 3.7089 3.85725 4.0056 4.15396 4.30232 4.45067 4.59903 4.74739 4.89574 5.0441 5.19246 5.3408 5.48917 5.63753 5.78587 5.93423 6.0826 6.23094 6.3793 6.52766 6.67601 6.82437 6.97273 7.12108 7.26944 7.4178 7.56615 7.71451 7.86287 8.01122 8.15958 8.30794 8.45628 8.60464 8.753 8.90135 9.04971 9.19807 9.34642 9.49478 9.64314 9.79149 9.93985 10.08821 10.23656 10.38492 10.53328 10.68163 10.82999 10.97835 11.1267 11.27505 11.42342 11.57176 11.72012 11.86848 12.01683 12.16519 12.31355 12.4619L12.61026 29.88708 12.75862 35.8645H12.90697 13.05533 13.20369 13.35204 13.5004 13.64876 13.7971 13.94547 14.09383 14.24217 14.39053 14.5389L14.68724 29.88708 14.8356 35.8645 14.98396 29.88708 15.13231 35.8645H15.28067 15.42903 15.57738 15.72574 15.8741 16.02245 16.1708 16.31917 16.46751 16.61588L16.76424 29.88708 16.91258 35.8645H17.06094 17.2093L17.35765 29.88708 17.50601 35.8645H17.65437 17.80272 17.95108 18.09944 18.24779 18.39615 18.54451 18.69286 18.84122 18.98958 19.13792 19.28629L19.43465 29.88708 19.583 35.8645H19.73135 19.87971 20.02806 20.17642 20.32478 20.47313 20.62149 20.76985 20.9182 21.06656 21.21492 21.36327 21.51163 21.65999 21.80833 21.9567L22.10506 29.88708 22.2534 35.8645H22.40176 22.55013 22.69847 22.84683 22.9952 23.14354 23.2919 23.44026 23.58861 23.73697 23.88533 24.03368 24.18204 24.3304 24.47874 24.6271 24.77547 24.92381 25.07217 25.22054 25.36888 25.51724 25.6656 25.81395L25.96231 29.88708 26.11067 35.8645H26.25902L26.40738 29.88708 26.55574 35.8645H26.70409 26.85245 27.00081 27.14915L27.29752 29.88708 27.44588 35.8645H27.59422 27.74258 27.89095 28.03929 28.18765 28.33601L28.48436 29.88708H28.63272L28.78108 35.8645H28.92943 29.07779 29.22615L29.3745 29.88708H29.52286L29.67122 35.8645 29.81956 29.88708H29.96793 30.11629L30.26463 35.8645H30.413L30.56136 29.88708H30.7097 30.85806L31.00642 35.8645 31.15477 29.88708H31.30313 31.45149L31.59984 35.8645 31.7482 29.88708 31.89656 35.8645 32.0449 29.88708H32.19327L32.34163 35.8645 32.48997 29.88708H32.63834L32.7867 35.8645H32.93504 33.0834L33.23177 29.88708 33.38011 35.8645 33.52847 29.88708H33.67683 33.82518 33.97354 34.1219L34.27025 35.8645 34.41861 29.88708H34.56697 34.71532 34.86368 35.01204 35.16039L35.30875 35.8645 35.4571 29.88708H35.60545L35.75381 35.8645 35.90218 29.88708H36.05052 36.19888 36.34724L36.49559 35.8645 36.64395 29.88708H36.79231 36.94066 37.08902L37.23738 35.8645H37.38573 37.53409L37.68245 29.88708H37.8308 37.97916 38.12752 38.27586 38.42422 38.57259 38.72093 38.8693 39.01765 39.166 39.31436 39.46272L39.61107 35.8645 39.75943 29.88708H39.90779 40.05614 40.2045 40.35286 40.5012 40.64957 40.79793 40.94627 41.09464 41.243 41.39134 41.5397 41.68806 41.83641 41.98477 42.13313 42.28148 42.42984 42.5782 42.72655 42.87491 43.02327L43.17162 23.90967H43.31998L43.46834 35.8645 43.61668 29.88708 43.76505 23.90967 43.9134 29.88708 44.06175 23.90967H44.21011L44.35847 29.88708 44.50682 35.8645 44.65518 23.90967H44.80354L44.95189 35.8645 45.10025 29.88708 45.24861 23.90967H45.39696L45.54532 29.88708 45.69368 23.90967H45.84203L45.99039 35.8645 46.13875 23.90967H46.2871L46.43546 29.88708 46.58382 23.90967H46.73216L46.88052 29.88708 47.02888 23.90967H47.17723 47.32559L47.47395 29.88708 47.6223 23.90967 47.77066 35.8645 47.91902 23.90967 48.06737 29.88708 48.21573 23.90967H48.36409L48.51244 29.88708 48.6608 23.90967H48.80916L48.9575 35.8645 49.10587 29.88708 49.25423 23.90967H49.40257 49.55093 49.6993 49.84764L49.996 29.88708 50.14436 23.90967H50.29271 50.44107 50.58943 50.73778 50.88614L51.0345 29.88708 51.18285 23.90967 51.3312 17.93225 51.47957 29.88708H51.62791L51.77628 23.90967H51.92464L52.07298 35.8645 52.22134 17.93225 52.3697 23.90967H52.51805 52.66641 52.81477 52.96312L53.11148 29.88708 53.25984 23.90967H53.40819 53.55655 53.70491 53.85326 54.00162 54.14998L54.29832 29.88708 54.44669 23.90967H54.59505L54.7434 17.93225H54.89175L55.04012 29.88708 55.18846 23.90967H55.33682 55.48518 55.63353 55.78189 55.93025 56.0786 56.22696 56.37532L56.52367 29.88708 56.67203 35.8645H56.82039L56.96873 23.90967 57.1171 35.8645 57.26546 23.90967H57.4138L57.56216 35.8645 57.71053 17.93225 57.85887 23.90967H58.00723 58.1556L58.30394 17.93225 58.4523 23.90967 58.60066 35.8645 58.74901 17.93225 58.89737 23.90967H59.04573L59.19408 29.88708 59.34244 23.90967H59.49078 59.63914 59.7875 59.93585L60.08421 35.8645H60.23257L60.38092 23.90967 60.52928 35.8645 60.67764 23.90967H60.82599L60.97435 17.93225H61.12271L61.27106 23.90967H61.41942 61.56778 61.71613 61.86449L62.01285 29.88708 62.1612 35.8645 62.30956 29.88708 62.45792 17.93225H62.60626 62.75462 62.90298 63.05133 63.19969L63.34805 23.90967H63.4964 63.64476L63.79312 17.93225H63.94147 64.08983 64.23819 64.38654 64.5349L64.68326 29.88708 64.8316 17.93225H64.97997 65.12833 65.27667 65.42503 65.5734L65.72174 23.90967 65.8701 29.88708H66.01846 66.16681L66.31517 17.93225H66.46353 66.61188L66.76024 23.90967 66.9086 17.93225 67.05695 35.8645 67.2053 23.90967 67.35367 17.93225H67.50201L67.65038 35.8645H67.79874L67.94708 29.88708 68.09544 17.93225H68.2438 68.39215 68.54051 68.68887L68.83722 35.8645 68.98558 29.88708 69.13394 17.93225 69.28229 35.8645 69.43065 17.93225H69.57901 69.72736 69.87572 70.02408L70.17242 23.90967 70.32079 17.93225H70.46915L70.6175 23.90967 70.76585 17.93225H70.91422 71.06256L71.21092 35.8645H71.35928L71.50763 29.88708 71.65599 23.90967 71.80435 17.93225 71.9527 29.88708H72.10106L72.24942 23.90967 72.39777 17.93225H72.54613 72.69449 72.84283 72.9912 73.13956 73.2879 73.43626L73.58463 29.88708 73.73297 35.8645H73.88133L74.0297 29.88708H74.17804L74.3264 23.90967 74.47476 29.88708 74.62311 17.93225H74.77147 74.91983 75.06818L75.21654 29.88708 75.3649 17.93225H75.51324 75.6616 75.80997 75.95831 76.10667 76.25504L76.40338 29.88708 76.55174 17.93225 76.7001 23.90967 76.84845 17.93225 76.99681 29.88708 77.14517 11.95483 77.29352 17.93225H77.44188 77.59024L77.73859 11.95483H77.88695L78.03531 17.93225 78.18365 11.95483H78.33202 78.48038L78.62872 35.8645H78.77708L78.92545 11.95483 79.07379 17.93225H79.22215 79.37051 79.51886L79.66722 11.95483 79.81558 29.88708 79.96393 11.95483 80.11229 23.90967 80.26065 17.93225H80.409 80.55736 80.70572L80.85406 11.95483H81.00243 81.15079 81.29913L81.4475 17.93225 81.59586 23.90967 81.7442 17.93225 81.89256 11.95483H82.04092 82.18927 82.33763 82.486 82.63434 82.7827 82.93106 83.0794L83.22777 17.93225 83.37613 23.90967H83.52448L83.67284 11.95483H83.8212 83.96954 84.1179 84.26627 84.41461 84.56297 84.71133 84.85968 85.00804 85.1564 85.30475 85.45311 85.60147L85.74982 23.90967 85.89818 11.95483H86.04654 86.19489L86.34325 17.93225H86.49161L86.63995 11.95483H86.78831 86.93668L87.08502 17.93225 87.23338 23.90967 87.38174 11.95483 87.53009 17.93225 87.67845 11.95483H87.82681 87.97516 88.12352 88.27188L88.42023 17.93225H88.56859L88.71695 11.95483H88.8653 89.01366 89.16202 89.31036 89.45872 89.60709 89.75543 89.9038 90.05215L90.2005 17.93225H90.34886L90.49722 11.95483 90.64557 23.90967 90.79393 5.97742 90.94229 17.93225 91.09064 11.95483H91.239 91.38736 91.5357L91.68407 5.97742 91.83243 11.95483 91.98077 5.97742 92.12914 23.90967 92.2775 11.95483 92.42584 17.93225 92.5742 11.95483H92.72256 92.87091 93.01927 93.16763 93.31598 93.46434 93.6127 93.76105 93.90941 94.05777 94.20612 94.35448L94.50284 17.93225 94.65118 5.97742 94.79955 11.95483H94.9479 95.09625 95.24461 95.39297L95.54132 23.90967 95.68968 17.93225 95.83804 23.90967 95.98639 5.97742H96.13475L96.28311 11.95483H96.43146 96.57982 96.72818 96.87653L97.02489 17.93225 97.17325 5.97742H97.3216 97.46996L97.61832 17.93225 97.76666 23.90967 97.91502 11.95483 98.06339 23.90967H98.21173L98.36009 5.97742H98.50845 98.6568 98.80516 98.95352 99.10187 99.25023 99.39859 99.54694 99.6953 99.84366 99.992 100.14037L100.28873 17.93225H100.43707L100.58543 5.97742H100.7338 100.88214 101.0305 101.17886 101.32721L101.47557 17.93225 101.62393 5.97742H101.77228 101.92064 102.069 102.21735 102.3657 102.51407 102.66241 102.81078 102.95914 103.10748 103.25584L103.4042 17.93225 103.55255 5.97742H103.70091 103.84927 103.99762 104.14598 104.29434 104.44269 104.59105 104.73941 104.88776 105.03612 105.18448 105.33282 105.48119 105.62955 105.7779 105.92625 106.07462L106.22296 11.95483 106.37132 5.97742H106.51968 106.66803 106.81639L106.96475 17.93225 107.1131 5.97742H107.26146 107.40982 107.55817 107.70653 107.85489 108.00323 108.1516L108.29996 17.93225 108.4483 5.97742H108.59666 108.74503 108.89337L109.04173 11.95483H109.1901L109.33844 5.97742H109.4868 109.63516 109.78351 109.93187L110.08023 11.95483 110.22858 17.93225 110.37694 5.97742H110.5253L110.67365 11.95483 110.822 5.97742H110.97037 111.11871 111.26707 111.41544L111.56378 11.95483 111.71214 5.97742H111.8605 112.00885 112.15721 112.30557 112.45392 112.60228 112.75064L112.89899 17.93225 113.04735 5.97742H113.19571L113.34406 17.93225 113.49242 11.95483H113.64078L113.78912 5.97742H113.93748 114.08585 114.23419L114.38255 11.95483 114.53091 5.97742H114.67926L114.82762 11.95483 114.97598 5.97742H115.12433 115.27269 115.42105L115.5694 11.95483 115.71776 5.97742 115.86612 11.95483 116.01447 17.93225 116.16283 5.97742H116.31119L116.45953 11.95483 116.6079 17.93225 116.75626 11.95483H116.9046L117.05296 5.97742H117.20132L117.34967 11.95483 117.49803 5.97742H117.6464 117.79474 117.9431L118.09146 11.95483 118.2398 5.97742 118.38817 11.95483 118.53653 0H118.68488 118.83324L118.98158 11.95483 119.12994 0 119.2783 11.95483H119.42665L119.57501 0 119.72337 11.95483 119.87172 0 120.02008 5.97742 120.16844 0H120.31679L120.46515 5.97742 120.61351 0H120.76186L120.91022 5.97742 121.05858 0H121.20692L121.35529 11.95483 121.50365 0 121.652 5.97742 121.80035 11.95483 121.94872 0H122.09706 122.24542L122.39378 11.95483 122.54213 5.97742 122.69049 0H122.83885 122.9872L123.13556 5.97742 123.28392 0H123.43227 123.58063L123.72899 11.95483 123.87733 5.97742 124.0257 0H124.17406 124.3224L124.47076 11.95483 124.61913 0H124.76747 124.91583 125.0642 125.21254 125.3609 125.50926 125.65761 125.80597L125.95433 5.97742 126.10268 0H126.25104 126.3994 126.54774 126.6961 126.84447 126.99281 127.14117 127.28954 127.43788L127.58624 5.97742H127.7346L127.88295 0H128.03131 128.17967 128.32802L128.47638 5.97742H128.62474L128.77309 0 128.92145 5.97742H129.06981L129.21816 0 129.36652 5.97742 129.51488 0H129.66323 129.81159 129.95995 130.10829L130.25666 5.97742H130.40502L130.55336 0H130.70172 130.85009 130.99843 131.14679 131.29515 131.4435 131.59186 131.74022 131.88857 132.03693 132.18529 132.33364 132.482 132.63036L132.7787 11.95483H132.92707L133.07543 0H133.22377 133.37213 133.5205 133.66884 133.8172 133.96556 134.1139 134.26227 134.41063 134.55898L134.70734 5.97742H134.8557L135.00405 0 135.1524 5.97742H135.30077L135.44911 0H135.59748 135.74584 135.89418L136.04254 5.97742 136.1909 0H136.33925 136.48761 136.63597 136.78432 136.93268L137.08104 5.97742 137.22939 0 137.37775 5.97742 137.52611 0 137.67446 5.97742 137.82282 0H137.97118L138.11952 5.97742 138.26789 0H138.41625 138.56459L138.71295 5.97742H138.86132L139.00966 0 139.15802 5.97742 139.30638 0 139.45473 5.97742 139.60309 0 139.75145 5.97742 139.8998 0H140.04816L140.19652 5.97742H140.34487L140.49323 0 140.64159 5.97742 140.78993 0 140.9383 5.97742H141.08666L141.235 0H141.38336L141.53173 5.97742H141.68007 141.82843 141.97679 142.12514 142.2735L142.42186 0 142.5702 5.97742H142.71857L142.86693 0 143.01528 5.97742 143.16364 0H143.312 143.46035"/>
<path transform="matrix(1,0,0,-1,41.082,36.417)" stroke-width="1.19553" stroke-linecap="butt" stroke-miterlimit="10" stroke-linejoin="miter" fill="none" stroke="#000000" d="M0 35.8645H.14835 .2967 .44505 .59341 .74178 .89012 1.03848 1.18684 1.33519 1.48355 1.63191 1.78026 1.92862 2.07698 2.22533 2.37369 2.52205 2.6704 2.81876 2.96712 3.11546 3.26382 3.41219 3.56053 3.7089 3.85725 4.0056 4.15396 4.30232 4.45067 4.59903 4.74739 4.89574 5.0441 5.19246 5.3408 5.48917 5.63753 5.78587 5.93423 6.0826 6.23094L6.3793 35.79579 6.52766 35.79733 6.67601 35.79881 6.82437 35.80023 6.97273 35.80157 7.12108 35.80287 7.26944 35.80412 7.4178 35.74612 7.56615 35.69038 7.71451 35.69371 7.86287 35.6969 8.01122 35.69998 8.15958 35.70293 8.30794 35.70581 8.45628 35.65659 8.60464 35.66014 8.753 35.61334 8.90135 35.6175 9.04971 35.6215 9.19807 35.6254 9.34642 35.62915 9.49478 35.63281 9.64314 35.63635 9.79149 35.59483 9.93985 35.59883 10.08821 35.6027 10.23656 35.60648 10.38492 35.61014 10.53328 35.6137 10.68163 35.61714 10.82999 35.62053 10.97835 35.6238 11.1267 35.5874 11.27505 35.59102 11.42342 35.59454 11.57176 35.59798 11.72012 35.60133 11.86848 35.60461 12.01683 35.6078 12.16519 35.6109 12.31355 35.61394 12.4619 35.6169 12.61026 35.61981 12.75862 35.62263 12.90697 35.6254 13.05533 35.59433 13.20369 35.56395 13.35204 35.56728 13.5004 35.57053 13.64876 35.54138 13.7971 35.54485 13.94547 35.54822 14.09383 35.55154 14.24217 35.5238 14.39053 35.49666 14.5389 35.50038 14.68724 35.474 14.8356 35.44815 14.98396 35.39336 15.13231 35.3688 15.28067 35.34471 15.42903 35.2925 15.57738 35.26959 15.72574 35.21904 15.8741 35.19724 16.02245 35.17586 16.1708 35.15485 16.31917 35.10716 16.46751 35.11397 16.61588 35.09407 16.76424 35.07452 16.91258 35.02922 17.06094 34.9847 17.2093 34.9666 17.35765 34.92336 17.50601 34.88087 17.65437 34.86409 17.80272 34.82278 17.95108 34.80676 18.09944 34.7666 18.24779 34.75128 18.39615 34.71222 18.54451 34.67377 18.69286 34.68318 18.84122 34.66902 18.98958 34.6318 19.13792 34.59515 19.28629 34.55908 19.43465 34.52354 19.583 34.48856 19.73135 34.45409 19.87971 34.44235 20.02806 34.40874 20.17642 34.37563 20.32478 34.34296 20.47313 34.31079 20.62149 34.27908 20.76985 34.24783 20.9182 34.217 21.06656 34.18663 21.21492 34.15666 21.36327 34.1271 21.51163 34.09798 21.65999 34.02843 21.80833 34.0206 21.9567 33.97264 22.10506 33.90535 22.2534 33.8985 22.40176 33.83257 22.55013 33.8263 22.69847 33.76169 22.84683 33.71727 22.9952 33.69264 23.14354 33.63013 23.2919 33.58739 23.44026 33.54518 23.58861 33.48477 23.73697 33.44374 23.88533 33.4217 24.03368 33.38156 24.18204 33.32362 24.3304 33.28458 24.47874 33.26405 24.6271 33.22581 24.77547 33.1702 24.92381 33.11523 25.07217 33.07855 25.22054 33.02478 25.36888 32.97162 25.51724 32.93642 25.6656 32.86717 25.81395 32.8501 25.96231 32.79915 26.11067 32.76572 26.25902 32.71582 26.40738 32.66649 26.55574 32.63435 26.70409 32.58603 26.85245 32.53822 27.00081 32.49094 27.14915 32.46046 27.29752 32.41411 27.44588 32.33604 27.59422 32.30688 27.74258 32.2621 27.89095 32.21779 28.03929 32.17395 28.18765 32.13055 28.33601 32.13446 28.48436 32.12279 28.63272 32.11122 28.78108 32.0998 28.92943 32.04262 29.07779 32.00122 29.22615 31.94513 29.3745 31.9197 29.52286 31.87955 29.67122 31.8547 29.81956 31.81528 29.96793 31.77623 30.11629 31.79633 30.26463 31.78697 30.413 31.74866 30.56136 31.68175 30.7097 31.64429 30.85806 31.60721 31.00642 31.58472 31.15477 31.59087 31.30313 31.52626 31.45149 31.4623 31.59984 31.39894 31.7482 31.36401 31.89656 31.31555 32.0449 31.25374 32.19327 31.19249 32.34163 31.15915 32.48997 31.09889 32.63834 31.03918 32.7867 30.98001 32.93504 30.96167 33.0834 30.95686 33.23177 30.89883 33.38011 30.8546 33.52847 30.83713 33.67683 30.79355 33.82518 30.77649 33.97354 30.78564 34.1219 30.72987 34.27025 30.67459 34.41861 30.65836 34.56697 30.62946 34.71532 30.61354 34.86368 30.5597 35.01204 30.5063 35.16039 30.46594 35.30875 30.42592 35.4571 30.37376 35.60545 30.3593 35.75381 30.36974 35.90218 30.34497 36.05052 30.30785 36.19888 30.29547 36.34724 30.2831 36.49559 30.25835 36.64395 30.22122 36.79231 30.18408 36.94066 30.14696 37.08902 30.10983 37.23738 30.07271 37.38573 30.03557 37.53409 29.99846 37.68245 29.96133 37.8308 29.94896H37.97916 38.12752L38.27586 29.93658 38.42422 29.92421 38.57259 29.89946 38.72093 29.88708 38.8693 29.84995 39.01765 29.81282 39.166 29.7757 39.31436 29.73857 39.46272 29.72618 39.61107 29.68906 39.75943 29.65193 39.90779 29.6148 40.05614 29.5777 40.2045 29.54056 40.35286 29.50343 40.5012 29.46631 40.64957 29.45393 40.79793 29.41681 40.94627 29.39204 41.09464 29.35492 41.243 29.34254 41.39134 29.29305 41.5397 29.2559 41.68806 29.21878 41.83641 29.18167 41.98477 29.13217 42.13313 29.08266 42.28148 29.04553 42.42984 28.99603 42.5782 28.94653 42.72655 28.89702H42.87491 43.02327L43.17162 28.84752 43.31998 28.8104 43.46834 28.77327 43.61668 28.73615 43.76505 28.69902 43.9134 28.64952 44.06175 28.63715 44.21011 28.58763 44.35847 28.56288 44.50682 28.52576 44.65518 28.48863 44.80354 28.45149 44.95189 28.41437 45.10025 28.36488 45.24861 28.31538 45.39696 28.26587 45.54532 28.21637 45.69368 28.17924 45.84203 28.15448 45.99039 28.11736 46.13875 28.06786 46.2871 28.01836 46.43546 27.96886 46.58382 27.91936 46.73216 27.86986 46.88052 27.82034 47.02888 27.77084 47.17723 27.72134 47.32559 27.67183 47.47395 27.6347 47.6223 27.60995 47.77066 27.58522 47.91902 27.53572 48.06737 27.4862 48.21573 27.4367 48.36409 27.3872 48.51244 27.35007 48.6608 27.30057 48.80916 27.25107 48.9575 27.20157 49.10587 27.15207 49.25423 27.10257 49.40257 27.05307 49.55093 27.00356 49.6993 26.95406 49.84764 26.90456 49.996 26.87979 50.14436 26.83029 50.29271 26.7808 50.44107 26.7313 50.58943 26.70654 50.73778 26.66942 50.88614 26.6323 51.0345 26.58278 51.18285 26.53328 51.3312 26.49615 51.47957 26.4714 51.62791 26.42189 51.77628 26.38478 51.92464 26.33528 52.07298 26.28578 52.22134 26.23627 52.3697 26.18677 52.51805 26.13727 52.66641 26.1125 52.81477 26.07538 52.96312 26.02588 53.11148 25.9764 53.25984 25.93925 53.40819 25.88976 53.55655 25.84026 53.70491 25.79074 53.85326 25.74124 54.00162 25.69174 54.14998 25.64224 54.29832 25.59274 54.44669 25.55562 54.59505 25.5185 54.7434 25.46898 54.89175 25.44423 55.04012 25.38235 55.18846 25.34523 55.33682 25.30809 55.48518 25.25859 55.63353 25.20909 55.78189 25.15959 55.93025 25.09772 56.0786 25.04822 56.22696 24.98633 56.37532 24.96158 56.52367 24.91208 56.67203 24.87495 56.82039 24.82544 56.96873 24.77596 57.1171 24.72646 57.26546 24.67694 57.4138 24.62744 57.56216 24.57794 57.71053 24.52843 57.85887 24.47893 58.00723 24.4418 58.1556 24.39232 58.30394 24.3428 58.4523 24.2933 58.60066 24.2438 58.74901 24.20667 58.89737 24.14479 59.04573 24.09529 59.19408 24.04578 59.34244 23.99629 59.49078 23.9468 59.63914 23.89728 59.7875 23.87253 59.93585 23.8354 60.08421 23.81065 60.23257 23.74876 60.38092 23.68689 60.52928 23.63739 60.67764 23.58789 60.82599 23.53839 60.97435 23.48889 61.12271 23.43939 61.27106 23.40225 61.41942 23.34038 61.56778 23.27849 61.71613 23.21661 61.86449 23.19188 62.01285 23.16713 62.1612 23.11761 62.30956 23.10524 62.45792 23.08049 62.60626 23.01862 62.75462 22.95673 62.90298 22.89485 63.05133 22.83298 63.19969 22.78348 63.34805 22.7216 63.4964 22.65973 63.64476 22.59784 63.79312 22.53596 63.94147 22.47408 64.08983 22.4122 64.23819 22.35034 64.38654 22.30083 64.5349 22.27608 64.68326 22.23895 64.8316 22.17706 64.97997 22.11519 65.12833 22.05331 65.27667 22.00381 65.42503 21.95432 65.5734 21.89244 65.72174 21.86769 65.8701 21.81818 66.01846 21.76868 66.16681 21.7068 66.31517 21.64491 66.46353 21.59543 66.61188 21.54591 66.76024 21.49641 66.9086 21.43454 67.05695 21.38503 67.2053 21.33553 67.35367 21.28603 67.50201 21.22414 67.65038 21.1994 67.79874 21.13753 67.94708 21.08803 68.09544 21.03851 68.2438 20.97664 68.39215 20.92714 68.54051 20.87762 68.68887 20.81575 68.83722 20.75388 68.98558 20.692 69.13394 20.6425 69.28229 20.58061 69.43065 20.53111 69.57901 20.48161 69.72736 20.4321 69.87572 20.38261 70.02408 20.33311 70.17242 20.27122 70.32079 20.22173 70.46915 20.1846 70.6175 20.13509 70.76585 20.08559 70.91422 20.03609 71.06256 19.9866 71.21092 19.94946 71.35928 19.89996 71.50763 19.85046 71.65599 19.78857 71.80435 19.73907 71.9527 19.68958 72.10106 19.64006 72.24942 19.59058 72.39777 19.5287 72.54613 19.50394 72.69449 19.45444 72.84283 19.40494 72.9912 19.35544 73.13956 19.29355 73.2879 19.24405 73.43626 19.19456 73.58463 19.14505 73.73297 19.09555 73.88133 19.04605 74.0297 18.99654 74.17804 18.94704 74.3264 18.90991 74.47476 18.88516 74.62311 18.83565 74.77147 18.78616 74.91983 18.74904 75.06818 18.69952 75.21654 18.65002 75.3649 18.60052 75.51324 18.53864 75.6616 18.48914 75.80997 18.45201 75.95831 18.40251 76.10667 18.35301 76.25504 18.30351 76.40338 18.25401 76.55174 18.2045 76.7001 18.155 76.84845 18.1055 76.99681 18.05598 77.14517 18.03123 77.29352 17.98175 77.44188 17.93225 77.59024 17.90749 77.73859 17.87036 77.88695 17.83324 78.03531 17.78374 78.18365 17.73422 78.33202 17.68472 78.48038 17.63522 78.62872 17.5981 78.77708 17.5486 78.92545 17.4991 79.07379 17.47435 79.22215 17.43721 79.37051 17.37534 79.51886 17.32584 79.66722 17.2887 79.81558 17.25157 79.96393 17.21445 80.11229 17.18971 80.26065 17.16496 80.409 17.10307 80.55736 17.06595 80.70572 17.0412 80.85406 17.00407 81.00243 16.96693 81.15079 16.94218 81.29913 16.90506 81.4475 16.85556 81.59586 16.83081 81.7442 16.79369 81.89256 16.73181 82.04092 16.69469 82.18927 16.65755 82.33763 16.62042 82.486 16.5833 82.63434 16.55855 82.7827 16.49666 82.93106 16.44716 83.0794 16.39767 83.22777 16.37292 83.37613 16.31104 83.52448 16.28629 83.67284 16.23679 83.8212 16.18727 83.96954 16.15015 84.1179 16.10065 84.26627 16.06352 84.41461 16.00165 84.56297 15.95215 84.71133 15.91502 84.85968 15.84076 85.00804 15.77888 85.1564 15.74176 85.30475 15.69225 85.45311 15.64275 85.60147 15.618 85.74982 15.5685 85.89818 15.519 86.04654 15.49425 86.19489 15.44475 86.34325 15.39523 86.49161 15.34573 86.63995 15.32098 86.78831 15.28386 86.93668 15.22197 87.08502 15.17249 87.23338 15.13536 87.38174 15.08585 87.53009 15.02397 87.67845 14.97447 87.82681 14.92496 87.97516 14.87546 88.12352 14.85071 88.27188 14.80122 88.42023 14.75171 88.56859 14.70221 88.71695 14.67746 88.8653 14.62794 89.01366 14.56607 89.16202 14.51657 89.31036 14.46706 89.45872 14.41756 89.60709 14.36807 89.75543 14.31857 89.9038 14.26906 90.05215 14.21956 90.2005 14.17006 90.34886 14.12054 90.49722 14.07104 90.64557 14.03392 90.79393 13.9968 90.94229 13.93492 91.09064 13.88542 91.239 13.8359 91.38736 13.7864 91.5357 13.73691 91.68407 13.68741 91.83243 13.65027 91.98077 13.61314 92.12914 13.56366 92.2775 13.51414 92.42584 13.45227 92.5742 13.37802 92.72256 13.31613 92.87091 13.279 93.01927 13.20474 93.16763 13.16763 93.31598 13.13051 93.46434 13.05624 93.6127 13.0315 93.76105 12.982 93.90941 12.9325 94.05777 12.88298 94.20612 12.84586 94.35448 12.79637 94.50284 12.73448 94.65118 12.70973 94.79955 12.66023 94.9479 12.61073 95.09625 12.54884 95.24461 12.49934 95.39297 12.44984 95.54132 12.40034 95.68968 12.35085 95.83804 12.30135 95.98639 12.22708 96.13475 12.15283 96.28311 12.10332 96.43146 12.02907 96.57982 11.97958 96.72818 11.93007 96.87653 11.89294 97.02489 11.88057 97.17325 11.85582 97.3216 11.80632 97.46996 11.7568 97.61832 11.7073 97.76666 11.6578 97.91502 11.59593 98.06339 11.52168 98.21173 11.4598 98.36009 11.42267 98.50845 11.38554 98.6568 11.34842 98.80516 11.31128 98.95352 11.28653 99.10187 11.26178 99.25023 11.21228 99.39859 11.17517 99.54694 11.13803 99.6953 11.1009 99.84366 11.06378 99.992 11.02666 100.14037 10.98952 100.28873 10.96477 100.43707 10.92764 100.58543 10.86577 100.7338 10.82863 100.88214 10.79152 101.0305 10.7544 101.17886 10.71727 101.32721 10.6925 101.47557 10.65538 101.62393 10.61826 101.77228 10.55638 101.92064 10.50687 102.069 10.44499 102.21735 10.40787 102.3657 10.38313 102.51407 10.346 102.66241 10.2965 102.81078 10.25937 102.95914 10.19748 103.10748 10.16035 103.25584 10.12323 103.4042 10.09848 103.55255 10.02422 103.70091 9.96236 103.84927 9.90047 103.99762 9.87572 104.14598 9.8386 104.29434 9.80147 104.44269 9.77672 104.59105 9.75197 104.73941 9.6777 104.88776 9.6282 105.03612 9.59108 105.18448 9.5292 105.33282 9.50446 105.48119 9.46733 105.62955 9.43019 105.7779 9.40544 105.92625 9.38069 106.07462 9.34357 106.22296 9.31882 106.37132 9.29407 106.51968 9.25693 106.66803 9.2198 106.81639 9.19507 106.96475 9.17032 107.1131 9.09605 107.26146 9.03418 107.40982 8.9723 107.55817 8.92279 107.70653 8.88567 107.85489 8.79836 108.00323 8.74773 108.1516 8.70923 108.29996 8.67038 108.4483 8.63123 108.59666 8.56635 108.74503 8.44994 108.89337 8.35812 109.04173 8.27838 109.1901 8.23668 109.33844 8.19463 109.4868 8.12614 109.63516 8.08324 109.78351 8.03993 109.93187 7.99626 110.08023 7.92569 110.22858 7.86781 110.37694 7.8094 110.5253 7.76392 110.67365 7.73149 110.822 7.69879 110.97037 7.6794 111.11871 7.60512 111.26707 7.53015 111.41544 7.48212 111.56378 7.43362 111.71214 7.37074 111.8605 7.32126 112.00885 7.27135 112.15721 7.22093 112.30557 7.19846 112.45392 7.17574 112.60228 7.10982 112.75064 7.07205 112.89899 7.04842 113.04735 7.02454 113.19571 7.00043 113.34406 6.97609 113.49242 6.90723 113.64078 6.85251 113.78912 6.82706 113.93748 6.80136 114.08585 6.77539 114.23419 6.74918 114.38255 6.72267 114.53091 6.69592 114.67926 6.63815 114.82762 6.61066 114.97598 6.56738 115.12433 6.52365 115.27269 6.49513 115.42105 6.419 115.5694 6.37378 115.71776 6.34402 115.86612 6.31393 116.01447 6.26743 116.16283 6.22038 116.31119 6.18915 116.45953 6.15753 116.6079 6.1256 116.75626 6.0933 116.9046 6.044 117.05296 5.99414 117.20132 5.94373 117.34967 5.89273 117.49803 5.8582 117.6464 5.84038 117.79474 5.82237 117.9431 5.75217 118.09146 5.69858 118.2398 5.66188 118.38817 5.62476 118.53653 5.58719 118.68488 5.54916 118.83324 5.5107 118.98158 5.47176 119.12994 5.43234 119.2783 5.39246 119.42665 5.35208 119.57501 5.27419 119.72337 5.1767 119.87172 5.17168 120.02008 5.12886 120.16844 5.08554 120.31679 5.02254 120.46515 5.0164 120.61351 4.9715 120.76186 4.88707 120.91022 4.76231 121.05858 4.7543 121.20692 4.74617 121.35529 4.73793 121.50365 4.72958 121.652 4.72113 121.80035 4.71255 121.94872 4.66278 122.09706 4.61232 122.24542 4.6028 122.39378 4.59317 122.54213 4.54112 122.69049 4.53091 122.83885 4.52054 122.9872 4.51003 123.13556 4.49936 123.28392 4.48853 123.43227 4.47754 123.58063 4.42195 123.72899 4.41028 123.87733 4.39845 124.0257 4.38646 124.17406 4.37427 124.3224 4.36188 124.47076 4.3493 124.61913 4.33653 124.76747 4.32358 124.91583 4.28659 125.0642 4.273 125.21254 4.25919 125.3609 4.19638 125.50926 4.18172 125.65761 4.16681 125.80597 4.15167 125.95433 4.08582 126.10268 4.06972 126.25104 4.05334 126.3994 3.98494 126.54774 3.96753 126.6961 3.94981 126.84447 3.90523 126.99281 3.83304 127.14117 3.78658 127.28954 3.76657 127.43788 3.7462 127.58624 3.69765 127.7346 3.67624 127.88295 3.65442 128.03131 3.6322 128.17967 3.60953 128.32802 3.5281 128.47638 3.4451 128.62474 3.36041 128.77309 3.33412 128.92145 3.3073 129.06981 3.24925 129.21816 3.19 129.36652 3.16081 129.51488 3.13101 129.66323 3.0686 129.81159 2.94022 129.95995 2.90704 130.10829 2.77403 130.25666 2.67145 130.40502 2.6341 130.55336 2.56174 130.70172 2.52225 130.85009 2.44688 130.99843 2.36974 131.14679 2.3981 131.29515 2.35472 131.4435 2.31029 131.59186 2.26472 131.74022 2.21802 131.88857 2.2082 132.03693 2.19814 132.18529 2.22687 132.33364 2.21678 132.482 2.1663 132.63036 2.15512 132.7787 2.10239 132.92707 2.13179 133.07543 2.03485 133.22377 2.06413 133.37213 2.05063 133.5205 2.08101 133.66884 2.02242 133.8172 2.00768 133.96556 2.03879 134.1139 1.97676 134.26227 2.0084 134.41063 2.04106 134.55898 2.07478 134.70734 2.10966 134.8557 2.09464 135.00405 2.13107 135.1524 2.16878 135.30077 2.20787 135.44911 2.24837 135.59748 2.23453 135.74584 2.22017 135.89418 2.26328 136.04254 2.24892 136.1909 2.23396 136.33925 2.15678 136.48761 2.13928 136.63597 2.18527 136.78432 2.2333 136.93268 2.21634 137.08104 2.19858 137.22939 2.2503 137.37775 2.30453 137.52611 2.36143 137.67446 2.42122 137.82282 2.4841 137.97118 2.55035 138.11952 2.62022 138.26789 2.35727 138.41625 2.4256 138.56459 2.49802 138.71295 2.57487 138.86132 2.65662 139.00966 2.74373 139.15802 2.73541 139.30638 2.72653 139.45473 2.60832 139.60309 2.70674 139.75145 2.8129 139.8998 2.80571 140.04816 2.92511 140.19652 3.0551 140.34487 3.05821 140.49323 3.0616 140.64159 3.06534 140.78993 3.23102 140.9383 3.24487 141.08666 3.44153 141.235 3.27792 141.38336 3.29787 141.53173 3.32077 141.68007 3.34735 141.82843 3.63841 141.97679 3.41565 142.12514 3.4606 142.2735 3.51611 142.42186 3.58644 142.5702 3.6784 142.71857 3.26039 142.86693 2.65662 143.01528 2.56174 143.16364 1.19548 143.312 0H143.46035"/>
</g>
<text xml:space="preserve" transform="matrix(1 0 -0 1 .0000076293949 65.225)" font-size="9.96264" font-family="LMRoman10"><tspan y="-3.43" x="93.658 97.583278 102.5646 105.33421 110.87344 114.74891 117.518527 122.49985 128.03908">solutions</tspan></text>
<text xml:space="preserve" transform="matrix(0 -1 1 0 49.268 31.177)" font-size="9.96264" font-family="CMMI10" font-style="italic"><tspan y="-41.658" x="7.61">x</tspan></text>
<text xml:space="preserve" transform="matrix(0 -1 1 0 49.268 31.177)" font-size="6.97385" font-family="CMR7"><tspan y="-40.164" x="13.304">5</tspan></text>
</svg>
